<?xml version="1.0" encoding="UTF-8" ?>
<!DOCTYPE svg PUBLIC "-//W3C//DTD SVG 1.1//EN" "http://www.w3.org/Graphics/SVG/1.1/DTD/svg11.dtd">
<svg width="512pt" height="512pt" viewBox="0 0 512 512" version="1.1" xmlns="http://www.w3.org/2000/svg">
<g id="#647a8aff">
<path fill="#647a8a" opacity="1.00" d=" M 253.63 0.00 L 255.97 0.00 C 255.92 13.32 255.99 26.63 255.91 39.95 L 255.91 40.84 C 248.56 42.65 241.71 45.97 234.70 48.75 C 202.28 61.66 169.89 74.65 137.49 87.60 C 123.82 93.32 109.85 98.30 96.28 104.25 C 95.90 159.50 96.26 214.75 96.10 270.00 C 96.13 281.22 96.41 292.51 98.40 303.59 C 103.59 333.22 118.63 360.33 137.86 383.15 C 167.18 417.94 204.85 444.78 244.74 466.20 C 248.31 468.21 252.07 469.85 255.93 471.23 L 255.92 472.16 C 255.97 485.44 255.93 498.72 255.97 512.00 L 253.41 512.00 C 249.63 510.51 246.26 508.23 242.62 506.47 C 231.69 501.68 221.54 495.36 211.06 489.70 C 200.68 482.84 189.76 476.79 179.95 469.08 C 174.63 466.10 170.47 461.55 165.26 458.41 C 161.58 456.03 158.82 452.51 155.12 450.15 C 150.76 447.49 148.08 442.90 143.80 440.14 C 140.03 437.75 137.63 433.85 134.18 431.07 C 130.40 428.09 127.68 424.04 124.12 420.81 C 120.83 417.78 118.52 413.87 115.29 410.76 C 110.92 406.65 108.30 401.11 103.99 396.93 C 99.88 390.40 95.07 384.32 91.44 377.48 C 84.48 367.24 79.97 355.65 74.94 344.41 C 73.38 337.75 70.10 331.60 69.04 324.82 C 68.14 319.48 65.87 314.42 65.72 308.95 C 65.51 302.90 63.35 297.04 63.81 290.95 C 63.99 287.41 63.96 283.86 63.67 280.33 C 63.08 274.25 64.45 268.18 63.80 262.10 C 62.91 255.14 64.54 248.17 63.73 241.20 C 62.98 234.83 64.47 228.47 63.80 222.09 C 62.91 215.13 64.54 208.16 63.73 201.20 C 62.98 194.83 64.47 188.47 63.80 182.10 C 62.91 175.14 64.54 168.17 63.73 161.20 C 63.00 155.15 64.37 149.09 63.85 143.03 C 63.49 138.99 63.37 134.94 63.80 130.90 C 64.46 124.82 63.06 118.75 63.67 112.67 C 63.97 109.15 64.08 105.62 63.80 102.10 C 62.90 94.30 64.75 86.47 63.54 78.68 C 74.58 76.10 84.44 70.29 94.75 65.83 C 103.34 63.04 111.76 59.74 119.92 55.87 C 124.23 53.69 128.48 51.28 133.17 49.96 C 144.11 46.79 154.23 41.45 164.49 36.62 C 175.62 33.54 186.02 28.45 196.39 23.49 C 206.74 19.86 217.12 16.11 226.84 10.97 C 230.41 9.13 234.08 7.47 237.98 6.47 C 243.46 5.00 248.52 2.42 253.63 0.00 Z" />
</g>
<g id="#3a5569ff">
<path fill="#3a5569" opacity="1.00" d=" M 255.97 0.00 L 258.36 0.00 C 264.69 3.74 272.15 4.75 278.45 8.52 C 281.87 10.41 285.75 11.09 289.49 12.11 C 293.53 16.73 300.27 16.13 305.12 19.40 C 309.52 22.38 315.17 22.38 319.56 25.40 C 323.91 28.23 329.36 28.41 333.69 31.28 C 338.24 34.22 343.86 34.64 348.43 37.54 C 352.63 40.09 357.72 40.45 361.88 43.09 C 366.24 45.85 371.60 46.24 375.97 48.99 C 380.41 51.62 385.73 52.14 390.16 54.82 C 394.59 57.38 399.76 58.23 404.19 60.79 C 408.70 63.48 414.22 63.75 418.60 66.69 C 421.15 68.32 424.02 69.32 426.93 70.13 C 431.30 71.24 434.83 74.42 439.29 75.30 C 442.24 76.04 445.92 76.47 447.40 79.55 C 450.31 89.04 446.98 98.85 448.54 108.46 C 449.10 112.65 448.07 116.81 448.02 120.99 C 447.91 125.52 449.14 130.01 448.53 134.53 C 447.95 138.87 447.83 143.26 448.45 147.60 C 449.35 153.69 447.29 159.76 448.27 165.85 C 449.57 172.80 447.18 179.77 448.36 186.73 C 449.47 193.40 447.17 200.07 448.36 206.74 C 449.47 213.40 447.18 220.07 448.36 226.73 C 449.47 233.40 447.17 240.07 448.36 246.74 C 449.47 253.40 447.18 260.07 448.36 266.74 C 449.12 271.15 448.35 275.58 448.04 279.99 C 447.62 285.12 449.60 290.25 448.30 295.33 C 447.10 300.00 446.55 304.81 446.55 309.63 C 446.65 315.78 443.49 321.26 442.02 327.09 C 440.21 332.84 440.56 339.19 437.53 344.56 C 433.06 352.33 429.80 360.69 425.70 368.65 C 421.98 379.24 414.94 388.24 407.59 396.57 C 390.22 420.25 368.85 440.73 345.74 458.74 C 340.62 462.60 336.41 467.58 330.91 470.95 C 325.61 474.28 321.04 478.82 315.15 481.15 C 311.50 482.60 308.19 484.73 304.91 486.87 C 298.76 490.85 292.12 493.99 286.03 498.05 C 281.11 501.38 276.28 505.17 270.39 506.61 C 266.09 507.66 262.23 509.86 258.40 512.00 L 255.97 512.00 C 255.93 498.72 255.97 485.44 255.92 472.16 C 272.03 463.82 288.09 455.29 303.05 444.98 C 317.02 435.90 330.41 425.88 342.91 414.85 C 350.65 407.63 359.03 401.05 365.79 392.85 C 380.25 376.80 393.49 359.30 402.30 339.46 C 411.28 319.99 416.46 298.51 415.68 277.00 C 415.67 220.65 415.62 164.29 415.71 107.94 C 415.61 105.98 415.56 103.45 413.19 102.94 C 360.76 81.97 308.25 61.15 255.91 39.95 C 255.99 26.63 255.92 13.32 255.97 0.00 Z" />
</g>
<g id="#2f988cff">
<path fill="#2f988c" opacity="1.00" d=" M 255.91 39.95 C 308.25 61.15 360.76 81.97 413.19 102.94 C 415.56 103.45 415.61 105.98 415.71 107.94 C 415.62 164.29 415.67 220.65 415.68 277.00 C 416.46 298.51 411.28 319.99 402.30 339.46 C 393.49 359.30 380.25 376.80 365.79 392.85 C 359.03 401.05 350.65 407.63 342.91 414.85 C 330.41 425.88 317.02 435.90 303.05 444.98 C 288.09 455.29 272.03 463.82 255.92 472.16 L 255.93 471.23 C 256.22 394.82 255.93 318.41 256.00 242.00 C 255.90 174.95 256.25 107.89 255.91 40.84 L 255.91 39.95 M 269.23 114.20 C 265.57 116.82 264.31 121.64 264.31 125.94 C 264.34 171.65 264.34 217.36 264.31 263.08 C 264.38 268.05 265.27 273.44 268.75 277.25 C 272.28 280.97 277.38 282.57 282.23 283.76 C 287.52 284.91 293.12 285.69 298.47 284.44 C 303.45 283.18 305.29 277.50 305.57 272.93 C 306.00 256.45 305.16 239.94 305.98 223.47 C 308.86 226.16 311.19 229.35 313.50 232.52 C 328.34 252.00 343.09 271.55 357.94 291.02 C 361.55 295.37 365.38 300.45 371.18 301.81 C 377.28 302.55 382.81 298.98 387.61 295.65 C 391.58 292.68 396.19 288.68 395.66 283.20 C 394.83 276.94 390.73 271.82 387.10 266.90 C 371.52 246.52 354.45 227.36 337.74 207.92 C 353.41 195.22 369.54 183.04 384.37 169.34 C 388.65 165.26 393.49 161.15 395.33 155.32 C 396.60 151.18 394.71 146.94 392.35 143.60 C 388.90 138.81 384.70 134.58 380.22 130.76 C 376.79 128.05 372.66 125.24 368.06 125.91 C 363.34 126.74 359.69 130.15 356.35 133.33 C 344.10 145.42 331.70 157.36 319.27 169.26 C 314.79 173.28 310.84 177.90 305.92 181.40 C 305.25 165.31 305.95 149.19 305.57 133.10 C 305.30 128.71 304.73 123.82 301.42 120.59 C 296.51 115.79 289.52 114.14 282.95 113.14 C 278.41 112.62 273.45 112.06 269.23 114.20 M 258.05 311.02 C 257.35 316.99 257.68 323.00 257.57 329.00 C 257.60 331.56 257.43 334.21 258.22 336.69 C 259.51 337.57 261.09 337.83 262.62 337.82 C 264.42 335.17 263.57 331.67 264.04 328.67 C 267.49 332.03 269.82 336.42 273.49 339.56 C 275.53 340.27 276.84 338.19 278.21 337.09 C 275.53 332.92 272.06 329.35 269.07 325.41 C 271.90 322.84 275.14 320.63 277.44 317.53 C 278.30 315.21 275.14 313.87 274.01 312.25 C 270.51 315.07 267.43 318.36 264.02 321.29 C 263.79 318.27 263.63 315.25 263.49 312.23 C 261.68 311.81 259.86 311.41 258.05 311.02 M 283.20 323.15 C 277.53 325.86 277.92 334.16 281.65 338.34 C 285.41 342.66 291.74 342.94 296.94 341.62 C 296.48 340.02 296.47 338.16 295.27 336.90 C 292.01 336.17 287.94 337.46 285.72 334.21 C 289.49 334.33 293.25 334.64 297.02 334.82 C 297.37 332.56 298.16 330.13 297.12 327.93 C 295.05 322.64 288.05 321.00 283.20 323.15 M 302.97 326.02 C 298.24 328.56 297.99 335.22 300.50 339.43 C 303.41 344.59 310.25 346.15 315.65 344.67 C 317.63 343.67 316.69 340.92 315.33 339.79 C 311.96 339.17 307.82 340.32 305.61 336.93 C 308.95 336.99 312.27 337.63 315.61 337.48 C 318.42 336.73 317.98 333.03 317.14 330.93 C 315.08 325.47 307.93 323.77 302.97 326.02 M 320.79 327.57 C 320.71 336.29 320.14 345.08 321.01 353.77 C 322.52 354.60 324.29 354.69 325.96 355.04 C 326.27 351.83 326.40 348.61 326.39 345.40 C 329.33 346.35 332.91 347.91 335.67 345.65 C 340.01 342.71 339.86 336.14 336.66 332.41 C 333.03 327.35 326.16 328.63 320.79 327.57 M 344.95 331.97 C 339.33 335.09 340.00 343.71 344.34 347.66 C 348.08 351.54 353.92 351.33 358.82 350.49 C 358.47 348.87 358.73 346.92 357.43 345.68 C 354.07 344.85 349.94 346.07 347.58 342.87 C 350.96 342.87 354.31 343.53 357.69 343.44 C 360.39 342.51 359.99 339.05 359.15 336.92 C 357.19 331.36 349.90 329.69 344.95 331.97 M 363.06 333.12 C 362.35 339.40 362.41 345.75 363.00 352.04 C 364.89 352.08 366.78 352.11 368.68 352.13 C 368.86 348.29 368.04 344.19 369.53 340.54 C 371.70 340.37 373.87 340.62 376.05 340.78 C 376.36 339.31 376.74 337.84 376.78 336.33 C 375.33 334.36 372.77 334.65 370.63 334.45 C 368.06 334.35 365.55 333.71 363.06 333.12 Z" />
<path fill="#2f988c" opacity="1.00" d=" M 285.63 330.60 C 286.38 327.93 289.07 328.20 291.28 328.38 C 291.43 329.00 291.73 330.22 291.88 330.83 C 289.80 330.76 287.71 330.71 285.63 330.60 Z" />
<path fill="#2f988c" opacity="1.00" d=" M 305.69 333.63 C 306.46 332.71 306.74 330.96 308.16 330.86 C 310.10 330.23 311.15 332.43 312.26 333.56 C 310.07 333.64 307.88 333.67 305.69 333.63 Z" />
<path fill="#2f988c" opacity="1.00" d=" M 326.90 334.81 C 328.66 334.99 330.72 334.50 332.20 335.76 C 333.10 337.22 332.46 339.09 332.60 340.72 C 330.77 340.38 328.01 340.99 327.18 338.79 C 327.02 337.46 326.92 336.14 326.90 334.81 Z" />
<path fill="#2f988c" opacity="1.00" d=" M 348.27 337.19 C 350.52 336.10 352.83 337.13 353.89 339.34 C 352.00 339.22 347.09 340.54 348.27 337.19 Z" />
</g>
<g id="#41c19dff">
<path fill="#41c19d" opacity="1.00" d=" M 234.70 48.75 C 241.71 45.97 248.56 42.65 255.91 40.84 C 256.25 107.89 255.90 174.95 256.00 242.00 C 255.93 318.41 256.22 394.82 255.93 471.23 C 252.07 469.85 248.31 468.21 244.74 466.20 C 204.85 444.78 167.18 417.94 137.86 383.15 C 118.63 360.33 103.59 333.22 98.40 303.59 C 96.41 292.51 96.13 281.22 96.10 270.00 C 96.26 214.75 95.90 159.50 96.28 104.25 C 109.85 98.30 123.82 93.32 137.49 87.60 C 169.89 74.65 202.28 61.66 234.70 48.75 M 230.38 113.39 C 200.07 118.82 169.73 124.10 139.40 129.44 C 133.30 130.57 126.80 131.81 121.90 135.91 C 117.52 139.93 116.41 146.25 116.31 151.93 C 116.34 196.64 116.34 241.36 116.31 286.07 C 116.43 290.51 116.66 295.64 120.09 298.92 C 123.36 301.65 127.97 301.50 131.98 301.33 C 138.95 300.64 146.32 299.34 152.02 294.99 C 156.81 290.85 157.89 284.04 157.69 278.03 C 157.82 262.82 157.25 247.59 157.97 232.40 C 172.04 230.16 186.04 227.48 200.08 225.09 C 205.18 224.07 210.49 223.49 215.21 221.17 C 220.01 218.76 222.50 213.50 223.34 208.41 C 224.27 202.65 224.30 196.69 223.12 190.96 C 222.41 187.59 220.85 183.76 217.21 182.73 C 211.43 180.95 205.36 182.66 199.58 183.61 C 185.69 186.09 171.79 188.55 157.89 190.96 C 157.54 183.11 157.40 175.23 157.96 167.39 C 181.37 163.52 204.71 159.19 228.09 155.14 C 233.27 154.16 238.77 153.34 243.15 150.17 C 246.28 148.05 248.11 144.49 248.74 140.83 C 249.68 135.28 249.63 129.60 249.20 124.01 C 248.83 120.45 247.99 116.30 244.68 114.30 C 240.34 111.78 235.08 112.69 230.38 113.39 M 243.13 321.85 C 241.17 321.20 239.08 319.98 237.05 321.06 C 234.18 322.29 231.07 322.24 228.02 322.05 C 227.38 328.36 227.35 334.74 228.09 341.04 C 229.98 340.34 233.74 340.69 233.53 337.83 C 233.82 334.92 233.58 331.98 233.99 329.08 C 233.89 327.04 236.97 326.69 237.90 328.19 C 238.52 331.70 238.32 335.29 238.41 338.85 C 240.14 338.84 241.90 338.98 243.60 338.58 C 245.10 334.83 243.74 330.65 244.83 326.83 C 245.87 326.25 246.95 325.75 248.07 325.32 C 249.09 329.27 249.15 333.36 249.04 337.42 C 251.00 337.45 252.95 337.34 254.90 337.11 C 255.18 331.71 256.49 325.52 253.33 320.71 C 250.45 317.29 246.03 319.93 243.13 321.85 M 169.88 322.99 C 169.51 331.66 169.29 340.37 170.04 349.03 C 171.71 348.75 173.41 348.53 175.04 348.06 C 175.95 344.87 175.75 341.50 175.93 338.23 C 179.20 337.80 182.45 337.28 185.69 336.66 C 185.79 334.77 185.87 332.88 185.95 331.00 C 182.63 331.09 179.32 331.31 176.03 331.67 C 175.97 330.52 175.91 329.37 175.86 328.22 C 180.24 327.49 184.79 327.47 189.02 326.02 C 190.30 324.60 189.80 322.47 190.11 320.74 C 183.30 320.42 176.54 321.68 169.88 322.99 M 211.13 324.33 C 210.26 330.55 210.48 336.86 210.91 343.12 C 212.69 342.66 215.43 343.45 216.33 341.37 C 217.21 337.57 215.94 333.39 217.69 329.80 C 219.72 329.18 221.85 328.97 223.95 328.67 C 224.35 326.66 226.15 323.22 222.93 322.71 C 219.04 323.57 215.17 324.65 211.13 324.33 M 145.93 329.94 C 142.87 332.27 138.87 331.47 135.33 331.29 C 135.28 337.17 135.28 343.05 135.28 348.93 C 139.11 349.43 143.28 349.99 146.72 347.76 C 150.15 345.66 153.90 343.80 158.05 344.61 C 158.33 338.38 158.39 332.14 157.87 325.93 C 153.26 324.10 149.49 327.54 145.93 329.94 M 160.10 325.09 C 159.58 336.40 159.68 347.75 160.00 359.06 C 160.70 359.01 162.10 358.91 162.80 358.86 C 162.82 347.61 162.85 336.37 162.76 325.12 C 162.10 325.11 160.77 325.10 160.10 325.09 M 195.38 326.41 C 190.57 328.33 186.95 333.61 188.14 338.88 C 188.79 343.46 193.82 346.43 198.20 345.40 C 204.35 344.46 208.97 337.84 207.38 331.76 C 206.38 326.57 199.87 324.39 195.38 326.41 Z" />
<path fill="#41c19d" opacity="1.00" d=" M 196.41 332.38 C 197.73 332.02 199.13 332.18 200.46 332.49 C 202.33 335.14 200.75 339.76 197.05 339.11 C 193.12 339.17 193.82 333.84 196.41 332.38 Z" />
</g>
<g id="#ffffffff">
<path fill="#ffffff" opacity="1.00" d=" M 230.38 113.39 C 235.08 112.69 240.34 111.78 244.68 114.30 C 247.99 116.30 248.83 120.45 249.20 124.01 C 249.63 129.60 249.68 135.28 248.74 140.83 C 248.11 144.49 246.28 148.05 243.15 150.17 C 238.77 153.34 233.27 154.16 228.09 155.14 C 204.71 159.19 181.37 163.52 157.96 167.39 C 157.40 175.23 157.54 183.11 157.89 190.96 C 171.79 188.55 185.69 186.09 199.58 183.61 C 205.36 182.66 211.43 180.95 217.21 182.73 C 220.85 183.76 222.41 187.59 223.12 190.96 C 224.30 196.69 224.27 202.65 223.34 208.41 C 222.50 213.50 220.01 218.76 215.21 221.17 C 210.49 223.49 205.18 224.07 200.08 225.09 C 186.04 227.48 172.04 230.16 157.97 232.40 C 157.25 247.59 157.82 262.82 157.69 278.03 C 157.89 284.04 156.81 290.85 152.02 294.99 C 146.32 299.34 138.95 300.64 131.98 301.33 C 127.97 301.50 123.36 301.65 120.09 298.92 C 116.66 295.64 116.43 290.51 116.31 286.07 C 116.34 241.36 116.34 196.64 116.31 151.93 C 116.41 146.25 117.52 139.93 121.90 135.91 C 126.80 131.81 133.30 130.57 139.40 129.44 C 169.73 124.10 200.07 118.82 230.38 113.39 Z" />
<path fill="#ffffff" opacity="1.00" d=" M 243.13 321.85 C 246.03 319.93 250.45 317.29 253.33 320.71 C 256.49 325.52 255.18 331.71 254.90 337.11 C 252.95 337.34 251.00 337.45 249.04 337.42 C 249.15 333.36 249.09 329.27 248.07 325.32 C 246.95 325.75 245.87 326.25 244.83 326.83 C 243.74 330.65 245.10 334.83 243.60 338.58 C 241.90 338.98 240.14 338.84 238.41 338.85 C 238.32 335.29 238.52 331.70 237.90 328.19 C 236.97 326.69 233.89 327.04 233.99 329.08 C 233.58 331.98 233.82 334.92 233.53 337.83 C 233.74 340.69 229.98 340.34 228.09 341.04 C 227.35 334.74 227.38 328.36 228.02 322.05 C 231.07 322.24 234.18 322.29 237.05 321.06 C 239.08 319.98 241.17 321.20 243.13 321.85 Z" />
<path fill="#ffffff" opacity="1.00" d=" M 169.88 322.99 C 176.54 321.68 183.30 320.42 190.11 320.74 C 189.80 322.47 190.30 324.60 189.02 326.02 C 184.79 327.47 180.24 327.49 175.86 328.22 C 175.91 329.37 175.97 330.52 176.03 331.67 C 179.32 331.31 182.63 331.09 185.95 331.00 C 185.87 332.88 185.79 334.77 185.69 336.66 C 182.45 337.28 179.20 337.80 175.93 338.23 C 175.75 341.50 175.95 344.87 175.04 348.06 C 173.41 348.53 171.71 348.75 170.04 349.03 C 169.29 340.37 169.51 331.66 169.88 322.99 Z" />
<path fill="#ffffff" opacity="1.00" d=" M 211.13 324.33 C 215.17 324.65 219.04 323.57 222.93 322.71 C 226.15 323.22 224.35 326.66 223.95 328.67 C 221.85 328.97 219.72 329.18 217.69 329.80 C 215.94 333.39 217.21 337.57 216.33 341.37 C 215.43 343.45 212.69 342.66 210.91 343.12 C 210.48 336.86 210.26 330.55 211.13 324.33 Z" />
<path fill="#ffffff" opacity="1.00" d=" M 145.93 329.94 C 149.49 327.54 153.26 324.10 157.87 325.93 C 158.39 332.14 158.33 338.38 158.05 344.61 C 153.90 343.80 150.15 345.66 146.72 347.76 C 143.28 349.99 139.11 349.43 135.28 348.93 C 135.28 343.05 135.28 337.17 135.33 331.29 C 138.87 331.47 142.87 332.27 145.93 329.94 Z" />
<path fill="#ffffff" opacity="1.00" d=" M 160.10 325.09 C 160.77 325.10 162.10 325.11 162.76 325.12 C 162.85 336.37 162.82 347.61 162.80 358.86 C 162.10 358.91 160.70 359.01 160.00 359.06 C 159.68 347.75 159.58 336.40 160.10 325.09 Z" />
<path fill="#ffffff" opacity="1.00" d=" M 195.38 326.41 C 199.87 324.39 206.38 326.57 207.38 331.76 C 208.97 337.84 204.35 344.46 198.20 345.40 C 193.82 346.43 188.79 343.46 188.14 338.88 C 186.95 333.61 190.57 328.33 195.38 326.41 M 196.41 332.38 C 193.82 333.84 193.12 339.17 197.05 339.11 C 200.75 339.76 202.33 335.14 200.46 332.49 C 199.13 332.18 197.73 332.02 196.41 332.38 Z" />
</g>
<g id="#e1e6e8ff">
<path fill="#e1e6e8" opacity="1.00" d=" M 269.23 114.20 C 273.45 112.06 278.41 112.62 282.95 113.14 C 289.52 114.14 296.51 115.79 301.42 120.59 C 304.73 123.82 305.30 128.71 305.57 133.10 C 305.95 149.19 305.25 165.31 305.92 181.40 C 310.84 177.90 314.79 173.28 319.27 169.26 C 331.70 157.36 344.10 145.42 356.35 133.33 C 359.69 130.15 363.34 126.74 368.06 125.91 C 372.66 125.24 376.79 128.05 380.22 130.76 C 384.70 134.58 388.90 138.81 392.35 143.60 C 394.71 146.94 396.60 151.18 395.33 155.32 C 393.49 161.15 388.65 165.26 384.37 169.34 C 369.54 183.04 353.41 195.22 337.74 207.92 C 354.45 227.36 371.52 246.52 387.10 266.90 C 390.73 271.82 394.83 276.94 395.66 283.20 C 396.19 288.68 391.58 292.68 387.61 295.65 C 382.81 298.98 377.28 302.55 371.18 301.81 C 365.38 300.45 361.55 295.37 357.94 291.02 C 343.09 271.55 328.34 252.00 313.50 232.52 C 311.19 229.35 308.86 226.16 305.98 223.47 C 305.16 239.94 306.00 256.45 305.57 272.93 C 305.29 277.50 303.45 283.18 298.47 284.44 C 293.12 285.69 287.52 284.91 282.23 283.76 C 277.38 282.57 272.28 280.97 268.75 277.25 C 265.27 273.44 264.38 268.05 264.31 263.08 C 264.34 217.36 264.34 171.65 264.31 125.94 C 264.31 121.64 265.57 116.82 269.23 114.20 Z" />
<path fill="#e1e6e8" opacity="1.00" d=" M 258.05 311.02 C 259.86 311.41 261.68 311.81 263.49 312.23 C 263.63 315.25 263.79 318.27 264.02 321.29 C 267.43 318.36 270.51 315.07 274.01 312.25 C 275.14 313.87 278.30 315.21 277.44 317.53 C 275.14 320.63 271.90 322.84 269.07 325.41 C 272.06 329.35 275.53 332.92 278.21 337.09 C 276.84 338.19 275.53 340.27 273.49 339.56 C 269.82 336.42 267.49 332.03 264.04 328.67 C 263.57 331.67 264.42 335.17 262.62 337.82 C 261.09 337.83 259.51 337.57 258.22 336.69 C 257.43 334.21 257.60 331.56 257.57 329.00 C 257.68 323.00 257.35 316.99 258.05 311.02 Z" />
<path fill="#e1e6e8" opacity="1.00" d=" M 283.20 323.15 C 288.05 321.00 295.05 322.64 297.12 327.93 C 298.16 330.13 297.37 332.56 297.02 334.82 C 293.25 334.64 289.49 334.33 285.72 334.21 C 287.94 337.46 292.01 336.17 295.27 336.90 C 296.47 338.16 296.48 340.02 296.94 341.62 C 291.74 342.94 285.41 342.66 281.65 338.34 C 277.92 334.16 277.53 325.86 283.20 323.15 M 285.63 330.60 C 287.71 330.71 289.80 330.76 291.88 330.83 C 291.73 330.22 291.43 329.00 291.28 328.38 C 289.07 328.20 286.38 327.93 285.63 330.60 Z" />
<path fill="#e1e6e8" opacity="1.00" d=" M 302.97 326.02 C 307.93 323.77 315.08 325.47 317.14 330.93 C 317.98 333.03 318.42 336.73 315.61 337.48 C 312.27 337.63 308.95 336.99 305.61 336.93 C 307.82 340.32 311.96 339.17 315.33 339.79 C 316.69 340.92 317.63 343.67 315.65 344.67 C 310.25 346.15 303.41 344.59 300.50 339.43 C 297.99 335.22 298.24 328.56 302.97 326.02 M 305.69 333.63 C 307.88 333.67 310.07 333.64 312.26 333.56 C 311.15 332.43 310.10 330.23 308.16 330.86 C 306.74 330.96 306.46 332.71 305.69 333.63 Z" />
<path fill="#e1e6e8" opacity="1.00" d=" M 320.79 327.57 C 326.16 328.63 333.03 327.35 336.66 332.41 C 339.86 336.14 340.01 342.71 335.67 345.65 C 332.91 347.91 329.33 346.35 326.39 345.40 C 326.40 348.61 326.27 351.83 325.96 355.04 C 324.29 354.69 322.52 354.60 321.01 353.77 C 320.14 345.08 320.71 336.29 320.79 327.57 M 326.90 334.81 C 326.92 336.14 327.02 337.46 327.18 338.79 C 328.01 340.99 330.77 340.38 332.60 340.72 C 332.46 339.09 333.10 337.22 332.20 335.76 C 330.72 334.50 328.66 334.99 326.90 334.81 Z" />
<path fill="#e1e6e8" opacity="1.00" d=" M 344.95 331.97 C 349.90 329.69 357.19 331.36 359.15 336.92 C 359.99 339.05 360.39 342.51 357.69 343.44 C 354.31 343.53 350.96 342.87 347.58 342.87 C 349.94 346.07 354.07 344.85 357.43 345.68 C 358.73 346.92 358.47 348.87 358.82 350.49 C 353.92 351.33 348.08 351.54 344.34 347.66 C 340.00 343.71 339.33 335.09 344.95 331.97 M 348.27 337.19 C 347.09 340.54 352.00 339.22 353.89 339.34 C 352.83 337.13 350.52 336.10 348.27 337.19 Z" />
<path fill="#e1e6e8" opacity="1.00" d=" M 363.06 333.12 C 365.55 333.71 368.06 334.35 370.63 334.45 C 372.77 334.65 375.33 334.36 376.78 336.33 C 376.74 337.84 376.36 339.31 376.05 340.78 C 373.87 340.62 371.70 340.37 369.53 340.54 C 368.04 344.19 368.86 348.29 368.68 352.13 C 366.78 352.11 364.89 352.08 363.00 352.04 C 362.41 345.75 362.35 339.40 363.06 333.12 Z" />
</g>
</svg>
