<?xml version="1.0" encoding="UTF-8" ?>
<!DOCTYPE svg PUBLIC "-//W3C//DTD SVG 1.1//EN" "http://www.w3.org/Graphics/SVG/1.1/DTD/svg11.dtd">
<svg width="1000pt" height="1000pt" viewBox="0 0 1000 1000" version="1.1" xmlns="http://www.w3.org/2000/svg">
<g id="#3a5569ff">
<path fill="#3a5569" opacity="1.00" d=" M 499.48 0.00 L 500.05 0.00 C 625.22 53.47 750.45 106.81 875.65 160.22 C 875.54 299.15 875.69 438.08 875.58 577.01 C 873.98 587.31 873.07 597.74 870.98 607.97 C 861.61 654.98 842.35 699.63 817.36 740.38 C 791.74 782.08 759.87 819.76 724.26 853.26 C 689.03 886.38 650.17 915.53 609.22 941.21 C 574.37 963.19 537.83 982.36 500.62 1000.00 L 499.41 1000.00 L 499.44 999.77 C 500.47 990.21 499.60 980.55 499.87 970.95 C 499.83 954.74 499.97 938.52 499.77 922.31 C 531.64 906.03 563.24 889.00 592.78 868.72 C 618.50 851.92 643.22 833.54 666.41 813.38 C 682.86 798.18 700.58 784.20 714.98 766.94 C 734.50 745.15 752.85 722.17 768.02 697.10 C 793.37 654.76 810.40 606.59 812.04 556.97 C 812.55 548.97 811.83 540.97 811.90 532.97 C 812.00 428.00 811.67 323.03 812.09 218.06 C 811.99 213.66 812.48 209.12 811.22 204.85 C 809.84 200.99 805.19 200.56 801.95 199.04 C 701.22 158.74 600.34 118.85 499.85 77.98 C 499.88 56.98 499.88 35.99 499.87 14.99 C 499.84 10.11 500.20 5.20 499.52 0.35 L 499.48 0.00 Z" />
</g>
<g id="#647a8aff">
<path fill="#647a8a" opacity="1.00" d=" M 124.35 160.31 C 249.40 106.99 374.43 53.59 499.52 0.35 C 500.20 5.20 499.84 10.11 499.87 14.99 C 499.88 35.99 499.88 56.98 499.85 77.98 C 499.85 78.43 499.85 79.33 499.86 79.78 C 487.24 83.02 475.30 88.31 463.31 93.31 C 397.33 119.69 331.32 146.00 265.38 172.49 C 242.65 181.89 219.55 190.36 196.88 199.90 C 194.00 201.26 190.63 201.97 188.23 204.14 C 187.32 274.07 187.85 344.02 187.74 413.96 C 187.77 447.66 187.79 481.35 187.72 515.05 C 187.61 539.62 187.71 564.32 191.50 588.66 C 197.02 623.59 209.70 657.18 227.05 687.93 C 243.29 716.88 263.68 743.33 286.26 767.60 C 339.89 825.41 405.26 871.17 474.34 908.64 C 482.47 913.22 490.89 917.34 499.74 920.38 C 499.75 920.86 499.77 921.83 499.77 922.31 C 499.97 938.52 499.83 954.74 499.87 970.95 C 499.60 980.55 500.47 990.21 499.44 999.77 C 431.76 968.87 366.96 930.93 309.30 883.73 C 253.61 838.09 204.65 783.28 170.26 719.75 C 150.75 683.57 135.83 644.67 128.43 604.15 C 126.58 594.50 126.07 584.66 124.41 574.98 C 124.35 436.76 124.47 298.53 124.35 160.31 Z" />
</g>
<g id="#2f988cff">
<path fill="#2f988c" opacity="1.00" d=" M 499.85 77.98 C 600.34 118.85 701.22 158.74 801.95 199.04 C 805.19 200.56 809.84 200.99 811.22 204.85 C 812.48 209.12 811.99 213.66 812.09 218.06 C 811.67 323.03 812.00 428.00 811.90 532.97 C 811.83 540.97 812.55 548.97 812.04 556.97 C 810.40 606.59 793.37 654.76 768.02 697.10 C 752.85 722.17 734.50 745.15 714.98 766.94 C 700.58 784.20 682.86 798.18 666.41 813.38 C 643.22 833.54 618.50 851.92 592.78 868.72 C 563.24 889.00 531.64 906.03 499.77 922.31 C 499.77 921.83 499.75 920.86 499.74 920.38 C 500.48 834.27 500.24 748.14 500.15 662.03 C 499.25 653.99 500.04 645.94 499.76 637.89 C 500.39 617.58 500.06 597.25 499.99 576.93 C 500.00 522.62 500.04 468.31 499.97 414.00 C 500.09 302.60 500.59 191.18 499.86 79.78 C 499.85 79.33 499.85 78.43 499.85 77.98 M 516.34 243.97 C 516.31 333.98 516.38 424.00 516.31 514.01 C 516.28 525.15 519.01 537.65 528.38 544.71 C 537.93 551.69 549.93 554.65 561.48 555.98 C 567.79 556.93 574.31 557.06 580.61 555.98 C 585.78 555.91 590.26 552.28 592.81 547.99 C 595.90 542.53 597.03 536.18 597.10 529.97 C 597.53 498.90 596.51 467.82 597.62 436.77 C 604.98 443.03 609.99 451.50 615.98 458.99 C 644.11 495.88 671.97 532.99 700.22 569.79 C 705.93 576.68 711.79 584.02 720.08 587.89 C 727.14 591.37 735.49 589.47 742.35 586.43 C 750.36 582.52 757.93 577.56 764.47 571.48 C 769.52 566.74 773.85 560.14 772.80 552.90 C 771.19 540.84 763.28 531.04 756.30 521.55 C 725.83 481.75 692.60 444.18 659.78 406.33 C 693.12 378.88 728.07 353.19 759.04 322.97 C 764.83 317.21 770.31 310.59 772.48 302.55 C 774.40 294.98 771.07 287.31 766.85 281.15 C 759.99 271.48 751.58 262.97 742.54 255.33 C 736.62 250.61 729.86 246.04 722.03 245.75 C 715.63 245.76 709.75 248.93 704.80 252.75 C 699.31 257.11 694.29 262.06 689.46 267.14 L 689.42 267.29 C 683.63 272.79 677.81 278.26 672.32 284.05 C 667.24 288.53 662.12 293.27 657.67 298.36 C 652.04 303.31 646.67 308.56 641.40 313.90 C 635.56 318.80 630.32 324.49 624.66 329.65 C 615.60 337.85 607.51 347.14 597.62 354.39 C 596.49 323.59 597.59 292.77 597.04 261.97 C 596.74 255.34 596.12 248.56 593.50 242.40 C 590.81 236.15 585.09 231.88 579.28 228.72 C 570.37 224.25 560.39 221.71 550.49 220.99 C 544.48 220.17 538.25 219.83 532.28 221.07 C 521.41 222.07 516.55 234.41 516.34 243.97 M 503.97 607.54 C 502.69 620.33 503.35 633.19 503.14 646.02 C 503.24 649.90 502.96 653.99 504.47 657.65 C 506.89 659.52 510.06 659.68 512.96 660.15 C 516.52 654.73 515.03 648.06 515.69 642.00 C 522.63 648.54 527.00 657.47 534.54 663.41 C 538.36 664.51 541.04 660.53 543.56 658.32 C 538.05 650.45 531.70 643.21 525.60 635.81 C 531.09 630.48 537.84 626.32 542.15 619.87 C 543.03 615.26 537.54 612.99 535.09 609.90 C 528.43 615.57 522.35 621.86 515.72 627.55 C 515.42 621.66 514.97 615.79 514.79 609.90 C 511.19 609.05 507.59 608.25 503.97 607.54 M 550.15 633.16 C 541.69 640.72 543.77 655.13 551.59 662.40 C 559.14 669.49 570.62 669.76 580.14 667.29 C 579.36 664.06 578.90 660.66 576.88 657.92 C 570.48 656.94 562.34 658.90 557.96 652.77 C 565.35 653.29 572.77 653.46 580.16 654.08 C 581.00 649.66 582.34 644.90 580.46 640.57 C 575.87 629.22 559.53 626.02 550.15 633.16 M 590.48 637.60 C 581.68 643.95 582.27 657.57 588.60 665.48 C 595.04 673.69 606.84 675.90 616.54 673.28 C 621.17 671.01 618.07 662.50 613.09 663.34 C 607.52 663.09 600.27 663.67 597.04 658.06 C 603.87 658.30 610.69 659.73 617.54 659.09 L 617.63 658.77 C 621.70 656.42 620.87 651.09 619.83 647.29 C 616.15 635.65 600.42 631.65 590.48 637.60 M 626.58 639.85 C 626.43 656.94 625.43 674.06 626.95 691.12 C 630.07 692.56 633.46 693.09 636.85 693.51 C 637.13 687.20 637.78 680.90 637.62 674.58 C 642.41 676.50 647.81 678.58 652.96 676.85 C 657.31 674.86 660.83 670.84 661.79 666.11 C 663.77 657.66 659.29 648.32 651.74 644.20 C 643.98 640.17 634.92 641.50 626.58 639.85 M 672.46 649.29 C 662.82 656.29 664.51 671.82 672.72 679.28 C 680.02 686.65 691.40 686.30 700.88 684.67 C 700.33 681.41 700.75 677.36 697.93 675.08 C 691.53 673.79 683.37 675.72 678.85 669.72 C 685.61 669.81 692.30 671.00 699.08 671.01 C 703.94 668.32 703.33 661.96 701.40 657.59 C 696.99 646.79 681.96 643.42 672.46 649.29 M 709.04 650.68 C 707.94 663.00 707.87 675.43 709.04 687.75 C 712.78 687.79 716.53 687.82 720.29 687.84 C 720.44 680.27 719.10 672.42 721.83 665.15 C 726.08 665.19 730.34 665.27 734.58 665.80 C 735.29 662.88 735.73 659.89 736.15 656.92 C 734.02 654.68 731.09 653.44 727.99 653.51 C 721.57 653.43 715.26 652.21 709.04 650.68 Z" />
<path fill="#2f988c" opacity="1.00" d=" M 437.26 380.89 L 438.49 380.05 C 438.72 387.36 438.51 394.68 438.56 401.99 C 438.25 401.59 437.64 400.78 437.33 400.37 C 437.85 393.89 437.88 387.37 437.26 380.89 Z" />
<path fill="#2f988c" opacity="1.00" d=" M 443.48 634.09 C 443.79 634.48 444.42 635.26 444.73 635.65 C 444.29 642.96 444.22 650.32 444.68 657.64 C 444.35 658.21 443.71 659.36 443.38 659.94 C 443.47 651.32 443.29 642.70 443.48 634.09 Z" />
<path fill="#2f988c" opacity="1.00" d=" M 557.80 645.76 C 559.28 641.08 564.70 640.83 568.78 641.37 C 569.23 643.39 570.67 645.29 570.37 647.42 L 569.30 646.27 C 565.47 645.95 561.63 645.95 557.80 645.76 Z" />
<path fill="#2f988c" opacity="1.00" d=" M 597.22 651.75 C 598.51 649.77 599.26 646.67 601.99 646.25 C 605.72 645.24 607.92 649.24 609.84 651.68 C 605.63 651.63 601.43 651.66 597.22 651.75 Z" />
<path fill="#2f988c" opacity="1.00" d=" M 638.63 654.00 C 642.08 654.30 646.24 653.40 648.99 656.07 C 650.46 658.98 649.50 662.38 649.67 665.51 C 646.24 665.17 641.74 665.80 639.50 662.55 C 638.42 659.86 638.80 656.84 638.63 654.00 Z" />
<path fill="#2f988c" opacity="1.00" d=" M 681.20 658.24 C 685.21 656.52 689.32 659.27 691.35 662.67 C 688.25 662.95 685.08 663.54 682.00 662.90 C 679.87 662.48 678.83 659.04 681.20 658.24 Z" />
</g>
<g id="#41c19dff">
<path fill="#41c19d" opacity="1.00" d=" M 463.31 93.31 C 475.30 88.31 487.24 83.02 499.86 79.78 C 500.59 191.18 500.09 302.60 499.97 414.00 C 500.04 468.31 500.00 522.62 499.99 576.93 C 500.06 597.25 500.39 617.58 499.76 637.89 C 500.04 645.94 499.25 653.99 500.15 662.03 C 500.24 748.14 500.48 834.27 499.74 920.38 C 490.89 917.34 482.47 913.22 474.34 908.64 C 405.26 871.17 339.89 825.41 286.26 767.60 C 263.68 743.33 243.29 716.88 227.05 687.93 C 209.70 657.18 197.02 623.59 191.50 588.66 C 187.71 564.32 187.61 539.62 187.72 515.05 C 187.79 481.35 187.77 447.66 187.74 413.96 C 187.85 344.02 187.32 274.07 188.23 204.14 C 190.63 201.97 194.00 201.26 196.88 199.90 C 219.55 190.36 242.65 181.89 265.38 172.49 C 331.32 146.00 397.33 119.69 463.31 93.31 M 431.00 224.94 C 376.83 234.56 322.62 243.99 268.45 253.58 C 257.70 255.72 246.37 258.37 237.92 265.78 C 229.06 274.26 227.10 287.31 227.27 299.02 C 227.33 385.67 227.30 472.32 227.28 558.96 C 227.37 567.55 228.00 577.24 234.42 583.69 C 240.76 589.43 249.98 588.87 257.95 588.59 C 271.20 587.40 285.00 584.87 296.05 576.98 C 306.20 569.07 308.48 555.13 308.18 543.01 C 308.40 513.33 307.35 483.64 308.70 453.98 C 340.17 448.92 371.52 443.06 402.91 437.52 C 411.45 435.60 420.83 433.73 427.10 427.11 C 433.94 419.96 436.28 409.91 437.33 400.37 C 437.64 400.78 438.25 401.59 438.56 401.99 C 438.51 394.68 438.72 387.36 438.49 380.05 L 437.26 380.89 C 435.93 372.91 434.82 363.39 427.60 358.40 C 419.67 354.26 410.22 355.17 401.69 356.57 C 370.71 362.23 339.62 367.36 308.68 373.19 C 307.69 358.16 307.72 343.04 308.59 328.00 C 308.68 327.76 308.87 327.28 308.96 327.04 C 354.69 319.34 400.31 311.00 446.00 303.04 C 456.55 301.05 467.83 299.32 476.43 292.34 C 483.14 286.99 485.93 278.31 486.67 270.05 C 487.79 260.04 487.66 249.89 486.55 239.89 C 485.70 234.30 484.15 228.21 479.58 224.46 C 474.70 220.50 468.06 219.88 462.00 220.15 C 451.53 220.71 441.32 223.27 431.00 224.94 M 474.87 628.74 C 471.21 627.19 466.95 625.11 463.03 627.08 C 457.55 629.65 451.34 629.36 445.45 629.11 C 445.27 631.29 445.00 633.47 444.73 635.65 C 444.42 635.26 443.79 634.48 443.48 634.09 C 443.29 642.70 443.47 651.32 443.38 659.94 C 443.71 659.36 444.35 658.21 444.68 657.64 C 444.93 660.50 445.35 663.34 445.63 666.21 C 449.14 665.09 453.90 665.48 456.03 661.92 C 456.96 655.31 456.16 648.58 457.19 641.98 C 457.86 638.41 464.37 638.32 464.92 642.01 C 465.92 648.61 465.53 655.32 465.72 661.98 C 469.06 662.01 472.40 661.88 475.74 661.61 C 478.84 654.42 476.37 646.45 478.10 639.03 C 479.67 637.12 482.36 636.56 484.44 635.35 C 486.78 643.05 486.58 651.19 486.51 659.16 C 490.25 659.08 493.99 658.86 497.73 658.63 C 498.68 650.77 499.55 642.72 498.24 634.86 C 497.20 630.23 495.23 624.41 489.92 623.38 C 484.35 622.59 479.29 625.77 474.87 628.74 M 331.86 630.88 C 331.28 647.87 330.59 664.96 332.31 681.90 C 335.57 681.36 338.82 680.70 342.03 679.89 C 343.62 673.63 343.40 667.15 343.69 660.75 C 350.08 659.90 356.42 658.75 362.78 657.68 C 363.00 653.93 363.19 650.18 363.38 646.44 C 356.85 646.78 350.32 647.11 343.82 647.85 C 343.74 645.63 343.65 643.43 343.53 641.23 C 352.15 639.50 361.36 640.08 369.54 636.53 C 371.59 633.61 371.04 629.76 371.31 626.39 C 358.00 625.90 344.87 628.39 331.86 630.88 M 412.45 633.55 C 410.64 645.66 411.27 657.96 411.91 670.14 C 415.43 669.51 420.33 670.78 422.49 667.11 C 424.64 659.74 421.69 651.47 425.26 644.41 C 429.16 642.82 433.45 642.72 437.55 641.94 C 438.14 639.63 438.82 637.35 439.19 635.00 C 439.67 632.68 437.56 629.90 435.10 630.46 C 427.63 631.95 420.16 634.24 412.45 633.55 M 312.60 701.46 C 314.44 701.27 316.28 701.09 318.12 700.91 C 318.12 678.96 318.29 657.01 318.00 635.06 C 316.28 634.98 314.56 634.96 312.84 634.89 C 311.69 657.06 311.92 679.28 312.60 701.46 M 285.36 644.32 C 279.36 648.97 271.37 647.51 264.37 647.06 C 264.29 658.59 264.27 670.12 264.29 681.66 C 271.64 682.64 279.87 683.70 286.45 679.45 C 293.10 675.39 300.76 671.49 308.78 673.15 C 309.48 660.94 309.42 648.68 308.47 636.48 C 299.77 633.27 291.99 639.55 285.36 644.32 M 384.44 636.59 C 373.73 639.41 365.02 650.73 367.52 661.98 C 368.60 669.01 375.00 674.33 381.93 675.03 C 393.61 676.16 404.56 666.36 405.66 654.88 C 406.10 649.90 404.95 644.44 401.21 640.90 C 396.85 636.62 390.28 635.31 384.44 636.59 Z" />
<path fill="#41c19d" opacity="1.00" d=" M 383.39 649.53 C 385.86 648.46 388.81 648.85 391.37 649.52 C 394.95 653.34 393.03 661.24 387.62 662.42 C 384.99 662.78 381.67 662.47 380.15 659.96 C 378.56 656.30 380.11 651.72 383.39 649.53 Z" />
</g>
<g id="#ffffffff">
<path fill="#ffffff" opacity="1.00" d=" M 431.00 224.94 C 441.32 223.27 451.53 220.71 462.00 220.15 C 468.06 219.88 474.70 220.50 479.58 224.46 C 484.15 228.21 485.70 234.30 486.55 239.89 C 487.66 249.89 487.79 260.04 486.67 270.05 C 485.93 278.31 483.14 286.99 476.43 292.34 C 467.83 299.32 456.55 301.05 446.00 303.04 C 400.31 311.00 354.69 319.34 308.96 327.04 C 308.87 327.28 308.68 327.76 308.59 328.00 C 307.72 343.04 307.69 358.16 308.68 373.19 C 339.62 367.36 370.71 362.23 401.69 356.57 C 410.22 355.17 419.67 354.26 427.60 358.40 C 434.82 363.39 435.93 372.91 437.26 380.89 C 437.88 387.37 437.85 393.89 437.33 400.37 C 436.28 409.91 433.94 419.96 427.10 427.11 C 420.83 433.73 411.45 435.60 402.91 437.52 C 371.52 443.06 340.17 448.92 308.70 453.98 C 307.35 483.64 308.40 513.33 308.18 543.01 C 308.48 555.13 306.20 569.07 296.05 576.98 C 285.00 584.87 271.20 587.40 257.95 588.59 C 249.98 588.87 240.76 589.43 234.42 583.69 C 228.00 577.24 227.37 567.55 227.28 558.96 C 227.30 472.32 227.33 385.67 227.27 299.02 C 227.10 287.31 229.06 274.26 237.92 265.78 C 246.37 258.37 257.70 255.72 268.45 253.58 C 322.62 243.99 376.83 234.56 431.00 224.94 Z" />
<path fill="#ffffff" opacity="1.00" d=" M 532.28 221.07 C 538.25 219.83 544.48 220.17 550.49 220.99 C 544.52 222.24 538.28 221.97 532.28 221.07 Z" />
<path fill="#ffffff" opacity="1.00" d=" M 672.32 284.05 C 677.81 278.26 683.63 272.79 689.42 267.29 C 688.62 270.74 685.23 272.58 683.02 275.07 C 679.53 278.13 676.93 282.51 672.32 284.05 Z" />
<path fill="#ffffff" opacity="1.00" d=" M 641.40 313.90 C 646.67 308.56 652.04 303.31 657.67 298.36 C 656.58 301.71 653.36 303.61 651.08 306.08 C 647.94 308.78 645.60 312.75 641.40 313.90 Z" />
<path fill="#ffffff" opacity="1.00" d=" M 561.48 555.98 C 567.77 554.85 574.31 554.96 580.61 555.98 C 574.31 557.06 567.79 556.93 561.48 555.98 Z" />
<path fill="#ffffff" opacity="1.00" d=" M 474.87 628.74 C 479.29 625.77 484.35 622.59 489.92 623.38 C 495.23 624.41 497.20 630.23 498.24 634.86 C 499.55 642.72 498.68 650.77 497.73 658.63 C 493.99 658.86 490.25 659.08 486.51 659.16 C 486.58 651.19 486.78 643.05 484.44 635.35 C 482.36 636.56 479.67 637.12 478.10 639.03 C 476.37 646.45 478.84 654.42 475.74 661.61 C 472.40 661.88 469.06 662.01 465.72 661.98 C 465.53 655.32 465.92 648.61 464.92 642.01 C 464.37 638.32 457.86 638.41 457.19 641.98 C 456.16 648.58 456.96 655.31 456.03 661.92 C 453.90 665.48 449.14 665.09 445.63 666.21 C 445.35 663.34 444.93 660.50 444.68 657.64 C 444.22 650.32 444.29 642.96 444.73 635.65 C 445.00 633.47 445.27 631.29 445.45 629.11 C 451.34 629.36 457.55 629.65 463.03 627.08 C 466.95 625.11 471.21 627.19 474.87 628.74 Z" />
<path fill="#ffffff" opacity="1.00" d=" M 331.86 630.88 C 344.87 628.39 358.00 625.90 371.31 626.39 C 371.04 629.76 371.59 633.61 369.54 636.53 C 361.36 640.08 352.15 639.50 343.53 641.23 C 343.65 643.43 343.74 645.63 343.82 647.85 C 350.32 647.11 356.85 646.78 363.38 646.44 C 363.19 650.18 363.00 653.93 362.78 657.68 C 356.42 658.75 350.08 659.90 343.69 660.75 C 343.40 667.15 343.62 673.63 342.03 679.89 C 338.82 680.70 335.57 681.36 332.31 681.90 C 330.59 664.96 331.28 647.87 331.86 630.88 Z" />
<path fill="#ffffff" opacity="1.00" d=" M 412.45 633.55 C 420.16 634.24 427.63 631.95 435.10 630.46 C 437.56 629.90 439.67 632.68 439.19 635.00 C 438.82 637.35 438.14 639.63 437.55 641.94 C 433.45 642.72 429.16 642.82 425.26 644.41 C 421.69 651.47 424.64 659.74 422.49 667.11 C 420.33 670.78 415.43 669.51 411.91 670.14 C 411.27 657.96 410.64 645.66 412.45 633.55 Z" />
<path fill="#ffffff" opacity="1.00" d=" M 312.60 701.46 C 311.92 679.28 311.69 657.06 312.84 634.89 C 314.56 634.96 316.28 634.98 318.00 635.06 C 318.29 657.01 318.12 678.96 318.12 700.91 C 316.28 701.09 314.44 701.27 312.60 701.46 Z" />
<path fill="#ffffff" opacity="1.00" d=" M 285.36 644.32 C 291.99 639.55 299.77 633.27 308.47 636.48 C 309.42 648.68 309.48 660.94 308.78 673.15 C 300.76 671.49 293.10 675.39 286.45 679.45 C 279.87 683.70 271.64 682.64 264.29 681.66 C 264.27 670.12 264.29 658.59 264.37 647.06 C 271.37 647.51 279.36 648.97 285.36 644.32 Z" />
<path fill="#ffffff" opacity="1.00" d=" M 384.44 636.59 C 390.28 635.31 396.85 636.62 401.21 640.90 C 404.95 644.44 406.10 649.90 405.66 654.88 C 404.56 666.36 393.61 676.16 381.93 675.03 C 375.00 674.33 368.60 669.01 367.52 661.98 C 365.02 650.73 373.73 639.41 384.44 636.59 M 383.39 649.53 C 380.11 651.72 378.56 656.30 380.15 659.96 C 381.67 662.47 384.99 662.78 387.62 662.42 C 393.03 661.24 394.95 653.34 391.37 649.52 C 388.81 648.85 385.86 648.46 383.39 649.53 Z" />
<path fill="#ffffff" opacity="1.00" d=" M 617.63 658.77 C 618.82 655.05 619.60 651.19 619.83 647.29 C 620.87 651.09 621.70 656.42 617.63 658.77 Z" />
</g>
<g id="#e1e6e8ff">
<path fill="#e1e6e8" opacity="1.00" d=" M 516.34 243.97 C 516.55 234.41 521.41 222.07 532.28 221.07 C 538.28 221.97 544.52 222.24 550.49 220.99 C 560.39 221.71 570.37 224.25 579.28 228.72 C 585.09 231.88 590.81 236.15 593.50 242.40 C 596.12 248.56 596.74 255.34 597.04 261.97 C 597.59 292.77 596.49 323.59 597.62 354.39 C 607.51 347.14 615.60 337.85 624.66 329.65 C 630.32 324.49 635.56 318.80 641.40 313.90 C 645.60 312.75 647.94 308.78 651.08 306.08 C 653.36 303.61 656.58 301.71 657.67 298.36 C 662.12 293.27 667.24 288.53 672.32 284.05 C 676.93 282.51 679.53 278.13 683.02 275.07 C 685.23 272.58 688.62 270.74 689.42 267.29 L 689.46 267.14 C 694.29 262.06 699.31 257.11 704.80 252.75 C 709.75 248.93 715.63 245.76 722.03 245.75 C 729.86 246.04 736.62 250.61 742.54 255.33 C 751.58 262.97 759.99 271.48 766.85 281.15 C 771.07 287.31 774.40 294.98 772.48 302.55 C 770.31 310.59 764.83 317.21 759.04 322.97 C 728.07 353.19 693.12 378.88 659.78 406.33 C 692.60 444.18 725.83 481.75 756.30 521.55 C 763.28 531.04 771.19 540.84 772.80 552.90 C 773.85 560.14 769.52 566.74 764.47 571.48 C 757.93 577.56 750.36 582.52 742.35 586.43 C 735.49 589.47 727.14 591.37 720.08 587.89 C 711.79 584.02 705.93 576.68 700.22 569.79 C 671.97 532.99 644.11 495.88 615.98 458.99 C 609.99 451.50 604.98 443.03 597.62 436.77 C 596.51 467.82 597.53 498.90 597.10 529.97 C 597.03 536.18 595.90 542.53 592.81 547.99 C 590.26 552.28 585.78 555.91 580.61 555.98 C 574.31 554.96 567.77 554.85 561.48 555.98 C 549.93 554.65 537.93 551.69 528.38 544.71 C 519.01 537.65 516.28 525.15 516.31 514.01 C 516.38 424.00 516.31 333.98 516.34 243.97 Z" />
<path fill="#e1e6e8" opacity="1.00" d=" M 503.97 607.54 C 507.59 608.25 511.19 609.05 514.79 609.90 C 514.97 615.79 515.42 621.66 515.72 627.55 C 522.35 621.86 528.43 615.57 535.09 609.90 C 537.54 612.99 543.03 615.26 542.15 619.87 C 537.84 626.32 531.09 630.48 525.60 635.81 C 531.70 643.21 538.05 650.45 543.56 658.32 C 541.04 660.53 538.36 664.51 534.54 663.41 C 527.00 657.47 522.63 648.54 515.69 642.00 C 515.03 648.06 516.52 654.73 512.96 660.15 C 510.06 659.68 506.89 659.52 504.47 657.65 C 502.96 653.99 503.24 649.90 503.14 646.02 C 503.35 633.19 502.69 620.33 503.97 607.54 Z" />
<path fill="#e1e6e8" opacity="1.00" d=" M 550.15 633.16 C 559.53 626.02 575.87 629.22 580.46 640.57 C 582.34 644.90 581.00 649.66 580.16 654.08 C 572.77 653.46 565.35 653.29 557.96 652.77 C 562.34 658.90 570.48 656.94 576.88 657.92 C 578.90 660.66 579.36 664.06 580.14 667.29 C 570.62 669.76 559.14 669.49 551.59 662.40 C 543.77 655.13 541.69 640.72 550.15 633.16 M 557.80 645.76 C 561.63 645.95 565.47 645.95 569.30 646.27 L 570.37 647.42 C 570.67 645.29 569.23 643.39 568.78 641.37 C 564.70 640.83 559.28 641.08 557.80 645.76 Z" />
<path fill="#e1e6e8" opacity="1.00" d=" M 590.48 637.60 C 600.42 631.65 616.15 635.65 619.83 647.29 C 619.60 651.19 618.82 655.05 617.63 658.77 L 617.54 659.09 C 610.69 659.73 603.87 658.30 597.04 658.06 C 600.27 663.67 607.52 663.09 613.09 663.34 C 618.07 662.50 621.17 671.01 616.54 673.28 C 606.84 675.90 595.04 673.69 588.60 665.48 C 582.27 657.57 581.68 643.95 590.48 637.60 M 597.22 651.75 C 601.43 651.66 605.63 651.63 609.84 651.68 C 607.92 649.24 605.72 645.24 601.99 646.25 C 599.26 646.67 598.51 649.77 597.22 651.75 Z" />
<path fill="#e1e6e8" opacity="1.00" d=" M 626.58 639.85 C 634.92 641.50 643.98 640.17 651.74 644.20 C 659.29 648.32 663.77 657.66 661.79 666.11 C 660.83 670.84 657.31 674.86 652.96 676.85 C 647.81 678.58 642.41 676.50 637.62 674.58 C 637.78 680.90 637.13 687.20 636.85 693.51 C 633.46 693.09 630.07 692.56 626.95 691.12 C 625.43 674.06 626.43 656.94 626.58 639.85 M 638.63 654.00 C 638.80 656.84 638.42 659.86 639.50 662.55 C 641.74 665.80 646.24 665.17 649.67 665.51 C 649.50 662.38 650.46 658.98 648.99 656.07 C 646.24 653.40 642.08 654.30 638.63 654.00 Z" />
<path fill="#e1e6e8" opacity="1.00" d=" M 672.46 649.29 C 681.96 643.42 696.99 646.79 701.40 657.59 C 703.33 661.96 703.94 668.32 699.08 671.01 C 692.30 671.00 685.61 669.81 678.85 669.72 C 683.37 675.72 691.53 673.79 697.93 675.08 C 700.75 677.36 700.33 681.41 700.88 684.67 C 691.40 686.30 680.02 686.65 672.72 679.28 C 664.51 671.82 662.82 656.29 672.46 649.29 M 681.20 658.24 C 678.83 659.04 679.87 662.48 682.00 662.90 C 685.08 663.54 688.25 662.95 691.35 662.67 C 689.32 659.27 685.21 656.52 681.20 658.24 Z" />
<path fill="#e1e6e8" opacity="1.00" d=" M 709.04 650.68 C 715.26 652.21 721.57 653.43 727.99 653.51 C 731.09 653.44 734.02 654.68 736.15 656.92 C 735.73 659.89 735.29 662.88 734.58 665.80 C 730.34 665.27 726.08 665.19 721.83 665.15 C 719.10 672.42 720.44 680.27 720.29 687.84 C 716.53 687.82 712.78 687.79 709.04 687.75 C 707.87 675.43 707.94 663.00 709.04 650.68 Z" />
</g>
</svg>
