<?xml version="1.0" encoding="UTF-8" ?>
<!DOCTYPE svg PUBLIC "-//W3C//DTD SVG 1.1//EN" "http://www.w3.org/Graphics/SVG/1.1/DTD/svg11.dtd">
<svg width="1000pt" height="1000pt" viewBox="0 0 1000 1000" version="1.1" xmlns="http://www.w3.org/2000/svg">
<g id="#3a5569ff">
<path fill="#3a5569" opacity="1.00" d=" M 499.34 0.00 L 500.23 0.00 C 625.28 53.68 750.59 106.76 875.69 160.30 C 875.59 298.55 875.70 436.80 875.62 575.05 C 872.99 607.10 864.98 638.57 853.36 668.52 C 841.33 699.70 825.37 729.29 806.83 757.08 C 800.92 750.50 792.29 747.85 784.42 744.49 C 771.69 739.29 758.79 734.52 745.76 730.16 C 765.16 704.40 781.63 676.31 793.21 646.17 C 806.62 611.86 813.72 574.88 812.12 537.99 C 812.10 429.32 811.92 320.64 812.24 211.97 C 812.19 208.10 812.07 202.91 807.73 201.33 C 705.08 160.31 602.26 119.67 499.88 77.97 C 499.92 53.96 499.84 29.95 499.94 5.95 C 499.88 4.13 499.66 2.32 499.41 0.51 L 499.34 0.00 Z" />
<path fill="#3a5569" opacity="1.00" d=" M 671.28 809.07 C 685.74 811.89 700.09 815.35 714.17 819.69 C 723.31 822.64 732.97 824.72 741.15 829.97 C 742.50 830.85 743.82 831.79 745.15 832.73 C 740.40 837.62 735.57 842.42 730.68 847.16 C 730.07 847.75 729.48 848.36 728.90 848.97 C 698.15 878.65 664.31 905.04 628.77 928.74 C 588.20 955.91 545.09 979.07 501.02 1000.00 L 499.25 1000.00 L 499.28 999.76 C 500.33 993.57 499.86 987.28 499.87 981.04 C 499.77 961.49 500.08 941.93 499.76 922.38 C 515.57 914.50 531.17 906.19 546.56 897.51 C 568.31 885.42 589.06 871.67 609.57 857.61 C 631.03 842.61 651.97 826.76 671.28 809.07 Z" />
</g>
<g id="#647a8aff">
<path fill="#647a8a" opacity="1.00" d=" M 124.34 160.45 C 249.33 107.07 374.34 53.71 499.41 0.51 C 499.66 2.32 499.88 4.13 499.94 5.95 C 499.84 29.95 499.92 53.96 499.88 77.97 C 499.88 78.44 499.88 79.38 499.88 79.85 C 487.81 82.99 476.32 87.92 464.86 92.76 C 405.07 116.71 345.23 140.53 285.46 164.50 C 254.86 177.09 223.92 188.82 193.32 201.39 C 191.54 202.12 189.89 203.13 188.28 204.16 C 187.28 283.42 187.97 362.69 187.79 441.95 C 187.78 468.97 187.81 496.00 187.76 523.02 C 187.67 546.65 188.23 570.42 192.41 593.74 C 199.44 633.39 215.62 671.04 237.21 704.90 C 242.62 713.56 248.66 721.79 254.55 730.12 C 237.55 735.80 220.77 742.14 204.34 749.29 C 200.05 751.18 196.20 753.98 193.00 757.40 C 161.94 710.87 138.47 658.70 128.32 603.50 C 126.73 593.40 125.60 583.21 124.47 573.05 C 124.29 435.52 124.54 297.98 124.34 160.45 Z" />
<path fill="#647a8a" opacity="1.00" d=" M 258.73 829.05 C 281.35 820.08 304.99 813.84 328.83 809.06 C 369.58 844.92 414.80 875.44 462.10 901.96 C 474.33 908.65 486.34 915.98 499.64 920.42 C 499.67 920.91 499.73 921.89 499.76 922.38 C 500.08 941.93 499.77 961.49 499.87 981.04 C 499.86 987.28 500.33 993.57 499.28 999.76 C 475.08 988.74 451.30 976.77 428.06 963.85 C 371.45 932.24 317.75 894.80 270.99 849.74 C 270.66 849.39 270.00 848.70 269.67 848.35 C 263.91 842.71 258.10 837.12 252.68 831.17 C 254.68 830.43 256.70 829.73 258.73 829.05 Z" />
</g>
<g id="#2f988cff">
<path fill="#2f988c" opacity="1.00" d=" M 499.88 77.97 C 602.26 119.67 705.08 160.31 807.73 201.33 C 812.07 202.91 812.19 208.10 812.24 211.97 C 811.92 320.64 812.10 429.32 812.12 537.99 C 813.72 574.88 806.62 611.86 793.21 646.17 C 781.63 676.31 765.16 704.40 745.76 730.16 C 673.61 706.32 597.73 695.34 521.96 692.46 C 514.70 692.41 507.50 691.36 500.25 691.40 C 500.17 679.27 500.89 667.09 499.54 655.01 C 499.43 648.97 500.00 642.94 499.61 636.90 C 501.03 612.29 499.80 587.63 500.01 563.00 C 500.18 509.66 500.03 456.33 500.03 402.99 C 500.30 295.28 500.76 187.56 499.88 79.85 C 499.88 79.38 499.88 78.44 499.88 77.97 M 523.39 225.46 C 517.90 231.09 516.15 239.32 516.40 246.96 C 516.39 332.62 516.45 418.28 516.40 503.94 C 516.49 511.69 515.87 519.57 517.77 527.18 C 519.43 534.56 523.44 541.72 529.94 545.86 C 541.43 553.52 555.48 555.77 568.96 556.94 C 576.46 556.81 585.64 557.34 590.89 550.89 C 596.55 544.02 597.45 534.56 597.31 525.98 C 597.54 496.30 596.81 466.61 597.71 436.94 C 605.41 443.46 610.52 452.33 616.80 460.10 C 642.80 494.17 668.53 528.43 694.58 562.46 C 699.46 568.86 704.33 575.32 710.13 580.94 C 714.13 584.63 718.68 588.07 724.06 589.38 C 730.58 590.64 737.31 589.00 743.21 586.18 C 751.55 581.94 759.49 576.73 766.10 570.07 C 770.69 565.33 774.24 558.67 772.74 551.90 C 770.66 539.56 762.32 529.71 755.12 519.93 C 725.01 480.72 692.18 443.72 659.88 406.33 C 693.34 379.05 728.14 353.26 759.12 323.09 C 765.70 316.48 772.27 308.61 773.17 298.96 C 773.36 287.91 765.69 279.05 758.94 271.13 C 751.36 263.01 743.45 254.89 733.77 249.29 C 727.52 245.61 719.58 244.59 712.94 247.86 C 703.22 252.52 695.87 260.76 688.47 268.34 C 681.56 274.69 675.05 281.45 668.37 288.03 C 663.42 291.61 659.75 296.69 655.18 300.73 C 649.34 305.95 643.89 311.57 638.30 317.03 C 633.06 321.12 628.72 326.35 623.65 330.70 C 615.01 338.63 607.19 347.50 597.70 354.45 C 596.75 323.63 597.68 292.80 597.20 261.98 C 596.64 252.26 595.61 241.05 587.57 234.38 C 575.02 223.76 557.94 221.24 542.08 220.18 C 535.65 220.33 528.15 220.46 523.39 225.46 M 503.95 607.61 C 502.79 621.05 503.36 634.55 503.20 648.02 C 503.29 651.21 503.17 654.57 504.46 657.57 C 506.85 659.62 510.19 659.83 513.17 660.31 C 516.40 654.79 515.43 648.25 515.70 642.15 C 521.89 647.79 525.88 655.36 531.91 661.16 C 533.33 662.39 534.77 664.41 536.94 663.65 C 539.77 662.73 541.67 660.27 543.75 658.28 C 538.00 650.62 531.93 643.22 525.71 635.94 C 531.18 630.54 538.05 626.42 542.28 619.85 C 542.97 615.16 537.61 612.97 535.06 609.89 C 528.57 615.71 522.43 621.91 515.78 627.54 C 515.51 621.67 515.31 615.79 514.83 609.94 C 511.21 609.09 507.59 608.28 503.95 607.61 M 549.70 633.72 C 541.65 641.66 544.02 655.82 552.08 662.88 C 559.69 669.63 570.97 669.91 580.33 667.31 C 579.51 664.07 578.84 660.71 577.01 657.86 C 570.62 657.17 562.39 658.86 558.05 652.81 C 565.41 653.50 572.83 653.41 580.19 654.18 C 581.12 649.77 582.62 644.94 580.54 640.62 C 575.83 629.07 558.95 625.83 549.70 633.72 M 590.03 638.06 C 582.20 644.25 582.33 656.53 587.72 664.26 C 592.85 672.11 602.92 675.29 611.93 674.26 C 614.22 673.88 617.24 673.98 618.50 671.60 C 620.14 668.03 617.20 662.79 613.00 663.31 C 607.49 663.25 600.26 663.65 597.15 658.08 C 601.28 658.25 605.38 659.02 609.53 659.02 C 612.78 659.04 617.13 660.54 619.42 657.39 C 621.58 654.48 620.81 650.56 619.83 647.37 C 616.27 635.53 599.82 631.39 590.03 638.06 M 626.61 639.89 C 626.54 656.92 625.37 674.01 627.02 690.98 C 629.91 692.99 633.69 693.16 637.10 693.59 C 637.22 687.25 637.95 680.92 637.70 674.58 C 643.43 677.32 651.32 679.70 656.56 674.75 C 665.83 667.46 663.15 652.10 654.13 645.74 C 646.17 639.86 635.75 641.75 626.61 639.89 M 670.83 650.78 C 662.69 658.91 665.29 673.40 673.77 680.30 C 681.15 686.78 691.81 686.22 700.89 684.82 C 700.57 681.50 700.89 677.33 697.91 675.08 C 691.61 673.80 683.20 675.84 679.03 669.67 C 685.68 669.94 692.29 671.21 698.96 671.14 C 703.50 669.15 703.48 663.07 702.04 659.02 C 698.15 646.66 680.34 642.37 670.83 650.78 M 709.14 650.75 C 708.00 663.09 707.89 675.55 709.18 687.88 C 712.91 687.85 716.64 687.84 720.37 688.01 C 720.63 680.42 719.10 672.46 722.01 665.22 C 726.32 665.25 730.61 665.71 734.93 665.73 C 735.34 662.79 735.83 659.86 736.35 656.94 C 734.23 655.19 731.78 653.50 728.92 653.59 C 722.22 653.54 715.62 652.33 709.14 650.75 Z" />
<path fill="#2f988c" opacity="1.00" d=" M 487.29 245.46 C 487.61 245.13 488.25 244.47 488.57 244.14 C 488.71 251.72 488.69 259.32 488.57 266.91 C 488.26 266.55 487.65 265.83 487.34 265.47 C 487.67 258.80 487.69 252.12 487.29 245.46 Z" />
<path fill="#2f988c" opacity="1.00" d=" M 437.30 380.56 L 438.76 379.82 C 439.04 387.27 439.05 394.78 438.74 402.23 L 437.33 401.64 C 437.88 394.63 437.97 387.57 437.30 380.56 Z" />
<path fill="#2f988c" opacity="1.00" d=" M 443.21 634.49 C 444.29 635.50 444.79 636.74 444.71 638.22 C 444.41 644.07 444.40 649.94 444.68 655.81 C 444.93 657.42 444.41 658.64 443.12 659.46 C 442.98 651.14 442.82 642.80 443.21 634.49 Z" />
<path fill="#2f988c" opacity="1.00" d=" M 557.77 645.81 C 559.42 641.58 564.58 640.63 568.57 641.44 C 569.56 643.15 570.08 645.06 570.80 646.90 C 566.54 645.77 562.12 646.03 557.77 645.81 Z" />
<path fill="#2f988c" opacity="1.00" d=" M 477.75 641.86 C 477.96 642.17 478.36 642.79 478.56 643.10 C 478.79 648.06 478.62 653.04 478.57 658.01 C 478.29 657.62 477.71 656.83 477.42 656.44 C 477.67 651.58 477.40 646.71 477.75 641.86 Z" />
<path fill="#2f988c" opacity="1.00" d=" M 597.46 651.86 C 598.52 649.46 599.88 646.12 603.02 646.19 C 606.30 646.16 608.18 649.45 609.86 651.82 C 605.73 651.61 601.59 651.63 597.46 651.86 Z" />
<path fill="#2f988c" opacity="1.00" d=" M 263.36 647.27 L 264.35 647.18 C 264.28 658.62 264.49 670.08 264.14 681.52 L 263.51 682.07 C 263.29 670.47 263.45 658.87 263.36 647.27 Z" />
<path fill="#2f988c" opacity="1.00" d=" M 638.73 654.10 C 642.19 654.22 646.27 653.57 649.03 656.18 C 650.48 659.07 649.58 662.45 649.77 665.56 C 646.25 665.43 641.73 665.79 639.54 662.43 C 638.51 659.78 638.82 656.87 638.73 654.10 Z" />
<path fill="#2f988c" opacity="1.00" d=" M 680.68 658.69 C 684.56 656.11 689.35 659.27 691.43 662.74 C 688.32 663.11 685.16 663.51 682.05 663.03 C 680.43 662.49 678.79 659.88 680.68 658.69 Z" />
<path fill="#2f988c" opacity="1.00" d=" M 311.52 683.13 C 311.69 682.81 312.02 682.16 312.19 681.84 C 312.37 688.10 312.41 694.36 312.55 700.63 C 312.27 700.96 311.73 701.64 311.46 701.98 C 311.34 695.70 311.31 689.41 311.52 683.13 Z" />
<path fill="#2f988c" opacity="1.00" d=" M 500.23 795.35 C 526.18 794.73 552.11 796.25 578.01 797.67 C 609.28 799.68 640.54 802.89 671.28 809.07 C 651.97 826.76 631.03 842.61 609.57 857.61 C 589.06 871.67 568.31 885.42 546.56 897.51 C 531.17 906.19 515.57 914.50 499.76 922.38 C 499.73 921.89 499.67 920.91 499.64 920.42 C 500.20 878.74 500.56 837.04 500.23 795.35 Z" />
</g>
<g id="#41c19dff">
<path fill="#41c19d" opacity="1.00" d=" M 464.86 92.76 C 476.32 87.92 487.81 82.99 499.88 79.85 C 500.76 187.56 500.30 295.28 500.03 402.99 C 500.03 456.33 500.18 509.66 500.01 563.00 C 499.80 587.63 501.03 612.29 499.61 636.90 C 500.00 642.94 499.43 648.97 499.54 655.01 C 500.89 667.09 500.17 679.27 500.25 691.40 C 481.48 692.41 462.68 692.83 443.94 694.32 C 379.74 698.97 315.74 709.83 254.55 730.12 C 248.66 721.79 242.62 713.56 237.21 704.90 C 215.62 671.04 199.44 633.39 192.41 593.74 C 188.23 570.42 187.67 546.65 187.76 523.02 C 187.81 496.00 187.78 468.97 187.79 441.95 C 187.97 362.69 187.28 283.42 188.28 204.16 C 189.89 203.13 191.54 202.12 193.32 201.39 C 223.92 188.82 254.86 177.09 285.46 164.50 C 345.23 140.53 405.07 116.71 464.86 92.76 M 439.15 223.59 C 384.46 233.27 329.76 242.82 275.07 252.48 C 266.49 253.88 257.89 255.59 249.75 258.74 C 244.04 261.16 238.39 264.44 234.72 269.59 C 229.26 277.22 227.48 286.81 227.36 296.03 C 227.39 384.04 227.36 472.06 227.37 560.07 C 227.46 567.64 228.17 575.81 232.96 582.02 C 236.62 586.95 243.05 588.64 248.92 588.74 C 261.64 589.08 274.57 587.31 286.41 582.50 C 291.92 580.09 297.50 577.06 301.03 572.02 C 307.11 563.73 308.56 553.02 308.32 543.00 C 308.52 513.35 307.60 483.69 308.81 454.05 C 340.62 449.01 372.29 443.04 404.01 437.43 C 411.99 435.56 420.67 433.77 426.66 427.72 C 433.56 420.86 436.15 411.01 437.33 401.64 L 438.74 402.23 C 439.05 394.78 439.04 387.27 438.76 379.82 L 437.30 380.56 C 436.22 373.87 435.21 366.74 430.81 361.30 C 428.23 357.90 423.90 356.67 419.92 355.87 C 409.86 354.33 399.92 357.16 390.06 358.75 C 362.97 363.64 335.79 368.04 308.78 373.33 C 307.98 357.96 307.72 342.50 308.90 327.16 C 348.14 320.59 387.28 313.49 426.46 306.58 C 437.33 304.66 448.25 302.99 459.01 300.51 C 466.99 298.53 475.20 295.11 480.41 288.46 C 485.38 281.87 486.65 273.47 487.34 265.47 C 487.65 265.83 488.26 266.55 488.57 266.91 C 488.69 259.32 488.71 251.72 488.57 244.14 C 488.25 244.47 487.61 245.13 487.29 245.46 C 486.65 239.10 485.90 232.37 482.06 227.03 C 478.78 222.65 473.26 220.61 467.95 220.31 C 458.24 219.75 448.62 221.72 439.15 223.59 M 474.94 628.87 C 471.34 627.13 467.03 625.15 463.11 627.11 C 457.64 629.75 451.44 629.43 445.54 629.14 C 445.29 632.17 444.91 635.18 444.71 638.22 C 444.79 636.74 444.29 635.50 443.21 634.49 C 442.82 642.80 442.98 651.14 443.12 659.46 C 444.41 658.64 444.93 657.42 444.68 655.81 C 445.05 659.25 444.98 662.83 445.91 666.16 C 449.08 665.70 452.63 665.34 455.18 663.19 C 456.72 661.92 456.32 659.75 456.51 658.01 C 456.84 652.66 456.43 647.25 457.31 641.95 C 458.20 638.51 464.27 638.48 465.01 642.04 C 465.99 648.68 465.66 655.44 465.80 662.14 C 469.16 662.18 472.53 662.02 475.88 661.69 C 476.43 659.95 477.04 658.22 477.42 656.44 C 477.71 656.83 478.29 657.62 478.57 658.01 C 478.62 653.04 478.79 648.06 478.56 643.10 C 478.36 642.79 477.96 642.17 477.75 641.86 C 477.20 637.86 481.75 636.98 484.36 635.37 C 487.12 643.03 486.52 651.34 486.56 659.34 C 490.26 659.12 493.97 658.83 497.70 658.81 C 498.98 651.28 499.34 643.54 498.50 635.95 C 497.64 631.19 495.89 625.45 490.88 623.62 C 485.05 622.32 479.49 625.59 474.94 628.87 M 331.84 630.94 C 331.39 647.97 330.57 665.08 332.36 682.08 C 335.64 681.56 338.88 680.79 342.10 679.97 C 343.87 673.74 343.41 667.23 343.85 660.84 C 350.18 660.06 356.43 658.80 362.73 657.78 C 363.16 654.00 363.45 650.20 363.50 646.39 C 356.96 646.83 350.43 647.28 343.90 647.79 C 343.82 645.58 343.75 643.39 343.67 641.20 C 351.55 639.90 359.74 640.12 367.36 637.51 C 372.29 636.42 371.06 630.10 371.34 626.34 C 358.01 625.96 344.88 628.51 331.84 630.94 M 412.55 633.67 C 410.56 645.73 411.45 658.01 411.89 670.16 C 414.66 669.83 417.59 670.21 420.25 669.26 C 423.57 667.95 423.15 663.81 423.41 660.91 C 423.76 655.47 422.42 649.33 425.58 644.52 C 429.39 642.77 433.69 642.89 437.72 641.92 C 438.29 639.26 439.10 636.65 439.40 633.95 C 438.91 632.05 437.30 629.83 435.07 630.54 C 427.62 631.93 420.22 634.36 412.55 633.67 M 312.19 681.84 C 312.02 682.16 311.69 682.81 311.52 683.13 C 311.31 689.41 311.34 695.70 311.46 701.98 C 311.73 701.64 312.27 700.96 312.55 700.63 L 312.56 701.62 C 314.46 701.40 316.35 701.19 318.25 700.99 C 318.29 679.02 318.40 657.06 318.17 635.10 C 316.42 635.01 314.68 634.97 312.93 634.97 C 312.15 650.58 312.02 666.21 312.19 681.84 M 285.46 644.36 C 279.42 649.09 271.40 647.42 264.35 647.18 L 263.36 647.27 C 263.45 658.87 263.29 670.47 263.51 682.07 L 264.14 681.52 C 271.68 683.13 280.41 683.76 287.11 679.22 C 293.59 675.30 301.03 671.69 308.83 673.19 C 309.74 660.96 309.43 648.66 308.61 636.43 C 299.92 633.45 292.05 639.49 285.46 644.36 M 382.19 637.36 C 376.16 639.82 371.07 644.66 368.67 650.75 C 365.86 657.07 366.87 665.13 371.76 670.17 C 375.88 674.53 382.41 676.16 388.19 674.73 C 400.35 672.18 409.19 658.16 404.71 646.21 C 401.49 637.47 390.43 634.09 382.19 637.36 Z" />
<path fill="#41c19d" opacity="1.00" d=" M 384.24 649.36 C 386.70 648.92 389.66 648.68 391.87 650.07 C 394.83 654.15 392.93 661.09 387.90 662.47 C 385.14 662.97 381.65 662.53 380.13 659.87 C 378.62 656.02 380.37 651.03 384.24 649.36 Z" />
<path fill="#41c19d" opacity="1.00" d=" M 423.93 797.58 C 449.34 796.13 474.78 794.75 500.23 795.35 C 500.56 837.04 500.20 878.74 499.64 920.42 C 486.34 915.98 474.33 908.65 462.10 901.96 C 414.80 875.44 369.58 844.92 328.83 809.06 C 360.17 802.74 392.05 799.56 423.93 797.58 Z" />
</g>
<g id="#e1e6e8ff">
<path fill="#e1e6e8" opacity="1.00" d=" M 523.39 225.46 C 528.15 220.46 535.65 220.33 542.08 220.18 C 557.94 221.24 575.02 223.76 587.57 234.38 C 595.61 241.05 596.64 252.26 597.20 261.98 C 597.68 292.80 596.75 323.63 597.70 354.45 C 607.19 347.50 615.01 338.63 623.65 330.70 C 628.72 326.35 633.06 321.12 638.30 317.03 C 640.32 316.35 642.19 315.27 643.66 313.70 C 647.86 309.50 652.18 305.42 656.24 301.09 L 655.18 300.73 C 659.75 296.69 663.42 291.61 668.37 288.03 C 669.84 287.38 671.42 286.80 672.59 285.63 C 677.24 281.29 681.64 276.67 686.23 272.26 C 687.17 271.11 688.89 270.08 688.47 268.34 C 695.87 260.76 703.22 252.52 712.94 247.86 C 719.58 244.59 727.52 245.61 733.77 249.29 C 743.45 254.89 751.36 263.01 758.94 271.13 C 765.69 279.05 773.36 287.91 773.17 298.96 C 772.27 308.61 765.70 316.48 759.12 323.09 C 728.14 353.26 693.34 379.05 659.88 406.33 C 692.18 443.72 725.01 480.72 755.12 519.93 C 762.32 529.71 770.66 539.56 772.74 551.90 C 774.24 558.67 770.69 565.33 766.10 570.07 C 759.49 576.73 751.55 581.94 743.21 586.18 C 737.31 589.00 730.58 590.64 724.06 589.38 C 718.68 588.07 714.13 584.63 710.13 580.94 C 704.33 575.32 699.46 568.86 694.58 562.46 C 668.53 528.43 642.80 494.17 616.80 460.10 C 610.52 452.33 605.41 443.46 597.71 436.94 C 596.81 466.61 597.54 496.30 597.31 525.98 C 597.45 534.56 596.55 544.02 590.89 550.89 C 585.64 557.34 576.46 556.81 568.96 556.94 C 555.48 555.77 541.43 553.52 529.94 545.86 C 523.44 541.72 519.43 534.56 517.77 527.18 C 515.87 519.57 516.49 511.69 516.40 503.94 C 516.45 418.28 516.39 332.62 516.40 246.96 C 516.15 239.32 517.90 231.09 523.39 225.46 Z" />
<path fill="#e1e6e8" opacity="1.00" d=" M 503.95 607.61 C 507.59 608.28 511.21 609.09 514.83 609.94 C 515.31 615.79 515.51 621.67 515.78 627.54 C 522.43 621.91 528.57 615.71 535.06 609.89 C 537.61 612.97 542.97 615.16 542.28 619.85 C 538.05 626.42 531.18 630.54 525.71 635.94 C 531.93 643.22 538.00 650.62 543.75 658.28 C 541.67 660.27 539.77 662.73 536.94 663.65 C 534.77 664.41 533.33 662.39 531.91 661.16 C 525.88 655.36 521.89 647.79 515.70 642.15 C 515.43 648.25 516.40 654.79 513.17 660.31 C 510.19 659.83 506.85 659.62 504.46 657.57 C 503.17 654.57 503.29 651.21 503.20 648.02 C 503.36 634.55 502.79 621.05 503.95 607.61 Z" />
<path fill="#e1e6e8" opacity="1.00" d=" M 549.70 633.72 C 558.95 625.83 575.83 629.07 580.54 640.62 C 582.62 644.94 581.12 649.77 580.19 654.18 C 572.83 653.41 565.41 653.50 558.05 652.81 C 562.39 658.86 570.62 657.17 577.01 657.86 C 578.84 660.71 579.51 664.07 580.33 667.31 C 570.97 669.91 559.69 669.63 552.08 662.88 C 544.02 655.82 541.65 641.66 549.70 633.72 M 557.77 645.81 C 562.12 646.03 566.54 645.77 570.80 646.90 C 570.08 645.06 569.56 643.15 568.57 641.44 C 564.58 640.63 559.42 641.58 557.77 645.81 Z" />
<path fill="#e1e6e8" opacity="1.00" d=" M 590.03 638.06 C 599.82 631.39 616.27 635.53 619.83 647.37 C 619.00 650.70 619.56 654.67 617.47 657.52 C 614.95 658.50 612.16 658.52 609.53 659.02 C 605.38 659.02 601.28 658.25 597.15 658.08 C 600.26 663.65 607.49 663.25 613.00 663.31 C 617.20 662.79 620.14 668.03 618.50 671.60 C 617.24 673.98 614.22 673.88 611.93 674.26 C 602.92 675.29 592.85 672.11 587.72 664.26 C 582.33 656.53 582.20 644.25 590.03 638.06 M 597.46 651.86 C 601.59 651.63 605.73 651.61 609.86 651.82 C 608.18 649.45 606.30 646.16 603.02 646.19 C 599.88 646.12 598.52 649.46 597.46 651.86 Z" />
<path fill="#e1e6e8" opacity="1.00" d=" M 626.61 639.89 C 635.75 641.75 646.17 639.86 654.13 645.74 C 663.15 652.10 665.83 667.46 656.56 674.75 C 651.32 679.70 643.43 677.32 637.70 674.58 C 637.95 680.92 637.22 687.25 637.10 693.59 C 633.69 693.16 629.91 692.99 627.02 690.98 C 625.37 674.01 626.54 656.92 626.61 639.89 M 638.73 654.10 C 638.82 656.87 638.51 659.78 639.54 662.43 C 641.73 665.79 646.25 665.43 649.77 665.56 C 649.58 662.45 650.48 659.07 649.03 656.18 C 646.27 653.57 642.19 654.22 638.73 654.10 Z" />
<path fill="#e1e6e8" opacity="1.00" d=" M 670.83 650.78 C 680.34 642.37 698.15 646.66 702.04 659.02 C 703.48 663.07 703.50 669.15 698.96 671.14 C 692.29 671.21 685.68 669.94 679.03 669.67 C 683.20 675.84 691.61 673.80 697.91 675.08 C 700.89 677.33 700.57 681.50 700.89 684.82 C 691.81 686.22 681.15 686.78 673.77 680.30 C 665.29 673.40 662.69 658.91 670.83 650.78 M 680.68 658.69 C 678.79 659.88 680.43 662.49 682.05 663.03 C 685.16 663.51 688.32 663.11 691.43 662.74 C 689.35 659.27 684.56 656.11 680.68 658.69 Z" />
<path fill="#e1e6e8" opacity="1.00" d=" M 709.14 650.75 C 715.62 652.33 722.22 653.54 728.92 653.59 C 731.78 653.50 734.23 655.19 736.35 656.94 C 735.83 659.86 735.34 662.79 734.93 665.73 C 730.61 665.71 726.32 665.25 722.01 665.22 C 719.10 672.46 720.63 680.42 720.37 688.01 C 716.64 687.84 712.91 687.85 709.18 687.88 C 707.89 675.55 708.00 663.09 709.14 650.75 Z" />
</g>
<g id="#ffffffff">
<path fill="#ffffff" opacity="1.00" d=" M 439.15 223.59 C 448.62 221.72 458.24 219.75 467.95 220.31 C 473.26 220.61 478.78 222.65 482.06 227.03 C 485.90 232.37 486.65 239.10 487.29 245.46 C 487.69 252.12 487.67 258.80 487.34 265.47 C 486.65 273.47 485.38 281.87 480.41 288.46 C 475.20 295.11 466.99 298.53 459.01 300.51 C 448.25 302.99 437.33 304.66 426.46 306.58 C 387.28 313.49 348.14 320.59 308.90 327.16 C 307.72 342.50 307.98 357.96 308.78 373.33 C 335.79 368.04 362.97 363.64 390.06 358.75 C 399.92 357.16 409.86 354.33 419.92 355.87 C 423.90 356.67 428.23 357.90 430.81 361.30 C 435.21 366.74 436.22 373.87 437.30 380.56 C 437.97 387.57 437.88 394.63 437.33 401.64 C 436.15 411.01 433.56 420.86 426.66 427.72 C 420.67 433.77 411.99 435.56 404.01 437.43 C 372.29 443.04 340.62 449.01 308.81 454.05 C 307.60 483.69 308.52 513.35 308.32 543.00 C 308.56 553.02 307.11 563.73 301.03 572.02 C 297.50 577.06 291.92 580.09 286.41 582.50 C 274.57 587.31 261.64 589.08 248.92 588.74 C 243.05 588.64 236.62 586.95 232.96 582.02 C 228.17 575.81 227.46 567.64 227.37 560.07 C 227.36 472.06 227.39 384.04 227.36 296.03 C 227.48 286.81 229.26 277.22 234.72 269.59 C 238.39 264.44 244.04 261.16 249.75 258.74 C 257.89 255.59 266.49 253.88 275.07 252.48 C 329.76 242.82 384.46 233.27 439.15 223.59 Z" />
<path fill="#ffffff" opacity="1.00" d=" M 668.37 288.03 C 675.05 281.45 681.56 274.69 688.47 268.34 C 688.89 270.08 687.17 271.11 686.23 272.26 C 681.64 276.67 677.24 281.29 672.59 285.63 C 671.42 286.80 669.84 287.38 668.37 288.03 Z" />
<path fill="#ffffff" opacity="1.00" d=" M 638.30 317.03 C 643.89 311.57 649.34 305.95 655.18 300.73 L 656.24 301.09 C 652.18 305.42 647.86 309.50 643.66 313.70 C 642.19 315.27 640.32 316.35 638.30 317.03 Z" />
<path fill="#ffffff" opacity="1.00" d=" M 474.94 628.87 C 479.49 625.59 485.05 622.32 490.88 623.62 C 495.89 625.45 497.64 631.19 498.50 635.95 C 499.34 643.54 498.98 651.28 497.70 658.81 C 493.97 658.83 490.26 659.12 486.56 659.34 C 486.52 651.34 487.12 643.03 484.36 635.37 C 481.75 636.98 477.20 637.86 477.75 641.86 C 477.40 646.71 477.67 651.58 477.42 656.44 C 477.04 658.22 476.43 659.95 475.88 661.69 C 472.53 662.02 469.16 662.18 465.80 662.14 C 465.66 655.44 465.99 648.68 465.01 642.04 C 464.27 638.48 458.20 638.51 457.31 641.95 C 456.43 647.25 456.84 652.66 456.51 658.01 C 456.32 659.75 456.72 661.92 455.18 663.19 C 452.63 665.34 449.08 665.70 445.91 666.16 C 444.98 662.83 445.05 659.25 444.68 655.81 C 444.40 649.94 444.41 644.07 444.71 638.22 C 444.91 635.18 445.29 632.17 445.54 629.14 C 451.44 629.43 457.64 629.75 463.11 627.11 C 467.03 625.15 471.34 627.13 474.94 628.87 Z" />
<path fill="#ffffff" opacity="1.00" d=" M 331.84 630.94 C 344.88 628.51 358.01 625.96 371.34 626.34 C 371.06 630.10 372.29 636.42 367.36 637.51 C 359.74 640.12 351.55 639.90 343.67 641.20 C 343.75 643.39 343.82 645.58 343.90 647.79 C 350.43 647.28 356.96 646.83 363.50 646.39 C 363.45 650.20 363.16 654.00 362.73 657.78 C 356.43 658.80 350.18 660.06 343.85 660.84 C 343.41 667.23 343.87 673.74 342.10 679.97 C 338.88 680.79 335.64 681.56 332.36 682.08 C 330.57 665.08 331.39 647.97 331.84 630.94 Z" />
<path fill="#ffffff" opacity="1.00" d=" M 412.55 633.67 C 420.22 634.36 427.62 631.93 435.07 630.54 C 437.30 629.83 438.91 632.05 439.40 633.95 C 439.10 636.65 438.29 639.26 437.72 641.92 C 433.69 642.89 429.39 642.77 425.58 644.52 C 422.42 649.33 423.76 655.47 423.41 660.91 C 423.15 663.81 423.57 667.95 420.25 669.26 C 417.59 670.21 414.66 669.83 411.89 670.16 C 411.45 658.01 410.56 645.73 412.55 633.67 Z" />
<path fill="#ffffff" opacity="1.00" d=" M 312.19 681.84 C 312.02 666.21 312.15 650.58 312.93 634.97 C 314.68 634.97 316.42 635.01 318.17 635.10 C 318.40 657.06 318.29 679.02 318.25 700.99 C 316.35 701.19 314.46 701.40 312.56 701.62 L 312.55 700.63 C 312.41 694.36 312.37 688.10 312.19 681.84 Z" />
<path fill="#ffffff" opacity="1.00" d=" M 285.46 644.36 C 292.05 639.49 299.92 633.45 308.61 636.43 C 309.43 648.66 309.74 660.96 308.83 673.19 C 301.03 671.69 293.59 675.30 287.11 679.22 C 280.41 683.76 271.68 683.13 264.14 681.52 C 264.49 670.08 264.28 658.62 264.35 647.18 C 271.40 647.42 279.42 649.09 285.46 644.36 Z" />
<path fill="#ffffff" opacity="1.00" d=" M 382.19 637.36 C 390.43 634.09 401.49 637.47 404.71 646.21 C 409.19 658.16 400.35 672.18 388.19 674.73 C 382.41 676.16 375.88 674.53 371.76 670.17 C 366.87 665.13 365.86 657.07 368.67 650.75 C 371.07 644.66 376.16 639.82 382.19 637.36 M 384.24 649.36 C 380.37 651.03 378.62 656.02 380.13 659.87 C 381.65 662.53 385.14 662.97 387.90 662.47 C 392.93 661.09 394.83 654.15 391.87 650.07 C 389.66 648.68 386.70 648.92 384.24 649.36 Z" />
<path fill="#ffffff" opacity="1.00" d=" M 617.47 657.52 C 619.56 654.67 619.00 650.70 619.83 647.37 C 620.81 650.56 621.58 654.48 619.42 657.39 C 617.13 660.54 612.78 659.04 609.53 659.02 C 612.16 658.52 614.95 658.50 617.47 657.52 Z" />
<path fill="#ffffff" opacity="1.00" d=" M 457.37 717.19 C 461.01 716.20 464.87 715.80 468.61 716.42 C 471.46 717.16 472.72 720.22 472.58 722.94 C 472.79 739.34 473.23 755.72 473.62 772.11 C 469.68 772.98 465.42 773.57 461.50 772.44 C 457.60 770.46 458.42 765.61 458.20 762.02 C 458.27 747.06 457.36 732.15 457.37 717.19 Z" />
<path fill="#ffffff" opacity="1.00" d=" M 498.31 720.07 C 498.62 717.88 500.70 716.08 502.92 716.20 C 515.56 716.14 528.20 716.24 540.84 716.15 C 542.58 719.89 543.51 725.04 540.50 728.36 C 536.58 730.73 531.73 729.18 527.40 729.57 C 527.29 737.03 527.77 744.52 527.04 751.97 C 526.87 758.59 527.16 765.22 526.89 771.84 C 522.25 772.72 515.64 774.19 512.58 769.53 C 511.66 766.44 512.06 763.16 512.00 759.99 C 512.38 749.80 511.99 739.59 512.44 729.41 C 508.14 729.44 503.84 729.38 499.55 729.46 C 498.15 726.55 497.76 723.23 498.31 720.07 Z" />
<path fill="#ffffff" opacity="1.00" d=" M 570.75 719.73 C 572.99 717.68 576.22 718.17 579.00 718.26 C 587.50 718.48 595.95 719.43 604.45 719.41 C 605.87 723.27 606.91 729.20 602.70 731.66 C 595.86 732.42 588.91 731.19 582.02 731.36 C 582.00 734.06 581.91 736.77 581.78 739.48 C 588.17 739.73 594.54 740.38 600.95 740.38 C 602.30 744.18 603.43 750.52 598.97 752.63 C 593.01 752.94 586.95 752.67 581.01 751.97 C 580.98 755.17 580.83 758.36 580.69 761.57 C 587.99 761.90 595.28 762.40 602.59 762.60 C 604.01 766.20 604.63 770.76 602.11 774.02 C 601.01 774.98 599.42 775.48 597.98 775.33 C 589.01 774.45 579.96 774.84 571.02 773.67 C 568.11 772.89 566.02 770.04 566.02 767.05 C 565.99 754.35 567.32 741.70 567.59 729.01 C 567.88 725.75 567.85 721.89 570.75 719.73 Z" />
<path fill="#ffffff" opacity="1.00" d=" M 394.66 720.85 C 398.41 720.35 402.29 718.72 406.04 720.07 C 408.69 720.53 409.85 723.46 409.86 725.87 C 410.70 738.25 411.16 750.64 411.85 763.03 C 418.31 762.05 424.89 762.35 431.37 761.49 C 433.38 765.39 434.89 771.53 430.55 774.42 C 422.80 775.77 414.85 775.43 407.04 776.44 C 404.21 776.80 400.89 776.41 398.98 774.06 C 396.28 770.94 397.33 766.54 396.66 762.80 C 396.12 748.81 395.17 734.83 394.66 720.85 Z" />
</g>
<g id="#280000ff">
<path fill="#280000" opacity="1.00" d=" M 443.94 694.32 C 462.68 692.83 481.48 692.41 500.25 691.40 C 507.50 691.36 514.70 692.41 521.96 692.46 C 597.73 695.34 673.61 706.32 745.76 730.16 C 758.79 734.52 771.69 739.29 784.42 744.49 C 792.29 747.85 800.92 750.50 806.83 757.08 C 810.84 761.42 813.85 766.74 815.21 772.52 C 816.67 778.69 815.45 785.06 813.71 791.04 C 851.35 797.65 884.45 819.00 913.15 843.33 C 895.79 846.54 878.43 849.66 861.02 852.57 C 862.09 861.06 864.01 869.45 864.29 878.05 C 865.27 893.59 864.47 909.17 864.81 924.73 C 839.97 903.07 811.14 884.64 778.56 877.60 C 770.18 875.41 761.28 875.87 753.13 872.78 C 742.10 868.93 732.43 860.31 728.90 848.97 C 729.48 848.36 730.07 847.75 730.68 847.16 C 735.29 854.04 739.62 861.67 747.00 865.96 C 753.28 869.95 760.87 870.56 767.98 872.11 C 784.98 875.46 802.05 879.52 817.59 887.43 C 828.54 893.03 838.69 900.03 848.57 907.32 C 852.68 910.33 856.36 913.95 860.90 916.35 C 861.44 899.34 861.49 882.24 859.46 865.32 C 858.87 860.15 857.27 855.16 856.82 849.97 C 872.47 846.69 888.30 844.34 904.03 841.47 C 900.03 836.53 894.45 833.29 889.48 829.46 C 874.08 818.07 857.30 808.42 839.32 801.76 C 829.29 798.27 819.03 795.22 808.41 794.37 C 810.76 786.32 814.11 777.61 810.71 769.33 C 806.89 760.64 798.76 754.51 790.30 750.69 C 762.06 738.43 732.71 728.85 702.89 721.27 C 638.55 705.01 572.29 697.08 506.01 695.17 C 493.31 694.54 480.67 696.06 467.99 696.22 C 422.67 698.69 377.48 704.07 333.00 713.10 C 289.91 721.98 247.25 734.01 207.03 752.02 C 198.89 756.39 190.82 763.11 188.47 772.42 C 186.61 779.98 190.02 787.22 191.71 794.43 C 174.03 796.11 157.05 802.37 141.29 810.36 C 127.06 817.48 114.05 826.74 101.39 836.31 C 99.40 837.80 97.69 839.61 96.04 841.47 C 111.78 844.29 127.59 846.76 143.28 849.90 C 142.91 855.25 141.18 860.37 140.62 865.69 C 138.75 881.37 138.70 897.20 139.10 912.96 C 139.20 914.14 139.37 915.31 139.60 916.49 C 155.08 904.68 170.60 892.47 188.60 884.68 C 205.77 876.74 224.62 873.93 242.95 869.96 C 249.80 868.62 256.03 864.84 260.61 859.61 C 263.93 856.09 265.88 851.46 269.67 848.35 C 270.00 848.70 270.66 849.39 270.99 849.74 C 267.56 860.11 258.84 867.99 248.90 872.05 C 239.73 876.11 229.43 875.25 219.92 877.98 C 187.94 885.22 159.81 903.53 135.26 924.67 C 135.58 900.70 134.08 876.44 139.28 852.84 C 121.84 849.38 104.26 846.67 86.80 843.29 C 115.75 819.19 148.68 797.58 186.44 791.03 C 185.32 786.78 184.10 782.47 184.24 778.04 C 184.43 770.36 187.94 763.05 193.00 757.40 C 196.20 753.98 200.05 751.18 204.34 749.29 C 220.77 742.14 237.55 735.80 254.55 730.12 C 315.74 709.83 379.74 698.97 443.94 694.32 Z" />
<path fill="#280000" opacity="1.00" d=" M 335.98 804.14 C 377.91 796.74 420.47 793.52 462.98 791.87 C 488.64 791.52 514.32 791.55 539.99 791.95 C 574.75 793.49 609.55 795.69 643.98 800.96 C 677.03 805.78 710.18 812.38 741.19 825.07 C 741.17 826.70 741.15 828.32 741.15 829.97 C 732.97 824.72 723.31 822.64 714.17 819.69 C 700.09 815.35 685.74 811.89 671.28 809.07 C 640.54 802.89 609.28 799.68 578.01 797.67 C 552.11 796.25 526.18 794.73 500.23 795.35 C 474.78 794.75 449.34 796.13 423.93 797.58 C 392.05 799.56 360.17 802.74 328.83 809.06 C 304.99 813.84 281.35 820.08 258.73 829.05 C 258.80 827.72 258.87 826.40 258.95 825.09 C 265.00 821.94 271.72 820.46 278.08 818.08 C 296.97 811.89 316.45 807.70 335.98 804.14 Z" />
</g>
<g id="#560000ff">
<path fill="#560000" opacity="1.00" d=" M 467.99 696.22 C 480.67 696.06 493.31 694.54 506.01 695.17 C 572.29 697.08 638.55 705.01 702.89 721.27 C 732.71 728.85 762.06 738.43 790.30 750.69 C 798.76 754.51 806.89 760.64 810.71 769.33 C 814.11 777.61 810.76 786.32 808.41 794.37 C 819.03 795.22 829.29 798.27 839.32 801.76 C 857.30 808.42 874.08 818.07 889.48 829.46 C 894.45 833.29 900.03 836.53 904.03 841.47 C 888.30 844.34 872.47 846.69 856.82 849.97 C 857.27 855.16 858.87 860.15 859.46 865.32 C 861.49 882.24 861.44 899.34 860.90 916.35 C 856.36 913.95 852.68 910.33 848.57 907.32 C 838.69 900.03 828.54 893.03 817.59 887.43 C 802.05 879.52 784.98 875.46 767.98 872.11 C 760.87 870.56 753.28 869.95 747.00 865.96 C 739.62 861.67 735.29 854.04 730.68 847.16 C 735.57 842.42 740.40 837.62 745.15 832.73 C 743.82 831.79 742.50 830.85 741.15 829.97 C 741.15 828.32 741.17 826.70 741.19 825.07 C 710.18 812.38 677.03 805.78 643.98 800.96 C 609.55 795.69 574.75 793.49 539.99 791.95 C 514.32 791.55 488.64 791.52 462.98 791.87 C 420.47 793.52 377.91 796.74 335.98 804.14 C 316.45 807.70 296.97 811.89 278.08 818.08 C 271.72 820.46 265.00 821.94 258.95 825.09 C 258.87 826.40 258.80 827.72 258.73 829.05 C 256.70 829.73 254.68 830.43 252.68 831.17 C 258.10 837.12 263.91 842.71 269.67 848.35 C 265.88 851.46 263.93 856.09 260.61 859.61 C 256.03 864.84 249.80 868.62 242.95 869.96 C 224.62 873.93 205.77 876.74 188.60 884.68 C 170.60 892.47 155.08 904.68 139.60 916.49 C 139.37 915.31 139.20 914.14 139.10 912.96 C 138.70 897.20 138.75 881.37 140.62 865.69 C 141.18 860.37 142.91 855.25 143.28 849.90 C 127.59 846.76 111.78 844.29 96.04 841.47 C 97.69 839.61 99.40 837.80 101.39 836.31 C 114.05 826.74 127.06 817.48 141.29 810.36 C 157.05 802.37 174.03 796.11 191.71 794.43 C 190.02 787.22 186.61 779.98 188.47 772.42 C 190.82 763.11 198.89 756.39 207.03 752.02 C 247.25 734.01 289.91 721.98 333.00 713.10 C 377.48 704.07 422.67 698.69 467.99 696.22 M 338.79 714.72 C 294.42 723.54 250.50 735.71 209.07 754.06 C 201.44 757.84 194.20 763.80 191.25 772.03 C 189.32 778.73 191.77 785.61 194.04 791.90 C 201.97 812.78 209.11 833.96 217.38 854.71 C 219.49 851.72 220.87 848.27 223.26 845.48 C 230.14 837.00 239.69 831.25 249.33 826.39 C 267.30 817.71 286.58 812.16 305.93 807.52 C 350.27 797.25 395.70 792.58 441.08 790.14 C 448.34 789.34 455.65 789.58 462.94 789.42 C 480.26 788.32 497.64 788.94 514.99 788.79 C 546.70 789.09 578.39 790.78 609.94 794.02 C 643.67 797.37 677.29 802.68 710.03 811.57 C 725.78 816.10 741.57 821.13 755.97 829.11 C 766.87 835.00 777.33 843.03 782.49 854.65 C 783.41 853.63 783.90 852.35 784.37 851.09 C 791.91 830.38 799.59 809.72 807.09 789.00 C 809.57 782.36 811.16 774.34 807.08 767.99 C 802.41 760.66 795.06 755.20 786.93 752.23 C 744.08 733.81 698.75 721.74 652.99 713.09 C 611.06 705.30 568.56 700.71 525.97 698.55 C 513.96 698.45 501.94 697.04 489.93 697.99 C 439.22 699.62 388.58 704.91 338.79 714.72 M 154.02 807.27 C 138.57 813.91 124.05 822.62 110.57 832.66 C 107.55 834.79 104.54 836.96 102.04 839.71 C 116.70 843.04 131.70 844.59 146.34 848.02 C 146.28 849.55 146.17 851.08 146.21 852.64 C 143.38 861.11 142.74 870.12 142.22 878.98 C 141.26 889.78 141.56 900.64 141.66 911.47 C 158.91 898.03 177.14 885.21 197.94 877.93 C 203.44 875.78 209.33 874.91 214.81 872.75 C 223.03 871.96 230.95 869.54 239.07 868.21 C 248.96 866.51 259.15 860.88 263.00 851.16 C 254.55 853.64 246.46 857.20 238.27 860.43 C 232.19 862.70 225.37 863.78 219.04 861.92 C 217.13 861.58 216.77 859.40 216.03 857.95 C 209.26 839.15 202.24 820.44 195.46 801.65 C 194.72 800.11 194.26 797.35 191.99 797.63 C 178.86 798.35 166.09 802.21 154.02 807.27 M 804.94 801.03 C 798.00 820.01 791.00 838.96 784.09 857.95 C 783.59 859.15 783.08 860.36 782.31 861.43 C 776.49 863.82 769.89 862.93 764.03 861.15 C 755.01 858.08 746.43 853.72 737.21 851.20 C 741.13 861.31 751.92 866.85 762.13 868.41 C 769.85 869.59 777.35 872.23 785.18 872.57 C 787.37 873.61 789.72 874.29 792.07 874.89 C 812.25 879.89 830.42 890.68 847.08 902.84 C 851.00 905.44 854.37 908.86 858.51 911.11 C 858.50 899.09 858.92 887.04 857.67 875.06 C 856.94 867.50 856.56 859.72 853.87 852.55 C 853.91 851.03 853.80 849.52 853.77 848.03 C 868.39 844.64 883.35 842.99 898.01 839.78 C 895.32 836.48 891.66 834.23 888.29 831.73 C 878.71 824.67 868.62 818.31 858.03 812.90 C 842.48 804.88 825.59 798.64 807.99 797.63 C 806.04 797.45 805.51 799.65 804.94 801.03 Z" />
</g>
<g id="#fe0000ff">
<path fill="#fe0000" opacity="1.00" d=" M 338.79 714.72 C 388.58 704.91 439.22 699.62 489.93 697.99 C 501.94 697.04 513.96 698.45 525.97 698.55 C 568.56 700.71 611.06 705.30 652.99 713.09 C 698.75 721.74 744.08 733.81 786.93 752.23 C 795.06 755.20 802.41 760.66 807.08 767.99 C 811.16 774.34 809.57 782.36 807.09 789.00 C 799.59 809.72 791.91 830.38 784.37 851.09 C 783.90 852.35 783.41 853.63 782.49 854.65 C 777.33 843.03 766.87 835.00 755.97 829.11 C 741.57 821.13 725.78 816.10 710.03 811.57 C 677.29 802.68 643.67 797.37 609.94 794.02 C 578.39 790.78 546.70 789.09 514.99 788.79 C 497.64 788.94 480.26 788.32 462.94 789.42 C 455.65 789.58 448.34 789.34 441.08 790.14 C 395.70 792.58 350.27 797.25 305.93 807.52 C 286.58 812.16 267.30 817.71 249.33 826.39 C 239.69 831.25 230.14 837.00 223.26 845.48 C 220.87 848.27 219.49 851.72 217.38 854.71 C 209.11 833.96 201.97 812.78 194.04 791.90 C 191.77 785.61 189.32 778.73 191.25 772.03 C 194.20 763.80 201.44 757.84 209.07 754.06 C 250.50 735.71 294.42 723.54 338.79 714.72 M 457.37 717.19 C 457.36 732.15 458.27 747.06 458.20 762.02 C 458.42 765.61 457.60 770.46 461.50 772.44 C 465.42 773.57 469.68 772.98 473.62 772.11 C 473.23 755.72 472.79 739.34 472.58 722.94 C 472.72 720.22 471.46 717.16 468.61 716.42 C 464.87 715.80 461.01 716.20 457.37 717.19 M 498.31 720.07 C 497.76 723.23 498.15 726.55 499.55 729.46 C 503.84 729.38 508.14 729.44 512.44 729.41 C 511.99 739.59 512.38 749.80 512.00 759.99 C 512.06 763.16 511.66 766.44 512.58 769.53 C 515.64 774.19 522.25 772.72 526.89 771.84 C 527.16 765.22 526.87 758.59 527.04 751.97 C 527.77 744.52 527.29 737.03 527.40 729.57 C 531.73 729.18 536.58 730.73 540.50 728.36 C 543.51 725.04 542.58 719.89 540.84 716.15 C 528.20 716.24 515.56 716.14 502.92 716.20 C 500.70 716.08 498.62 717.88 498.31 720.07 M 570.75 719.73 C 567.85 721.89 567.88 725.75 567.59 729.01 C 567.32 741.70 565.99 754.35 566.02 767.05 C 566.02 770.04 568.11 772.89 571.02 773.67 C 579.96 774.84 589.01 774.45 597.98 775.33 C 599.42 775.48 601.01 774.98 602.11 774.02 C 604.63 770.76 604.01 766.20 602.59 762.60 C 595.28 762.40 587.99 761.90 580.69 761.57 C 580.83 758.36 580.98 755.17 581.01 751.97 C 586.95 752.67 593.01 752.94 598.97 752.63 C 603.43 750.52 602.30 744.18 600.95 740.38 C 594.54 740.38 588.17 739.73 581.78 739.48 C 581.91 736.77 582.00 734.06 582.02 731.36 C 588.91 731.19 595.86 732.42 602.70 731.66 C 606.91 729.20 605.87 723.27 604.45 719.41 C 595.95 719.43 587.50 718.48 579.00 718.26 C 576.22 718.17 572.99 717.68 570.75 719.73 M 394.66 720.85 C 395.17 734.83 396.12 748.81 396.66 762.80 C 397.33 766.54 396.28 770.94 398.98 774.06 C 400.89 776.41 404.21 776.80 407.04 776.44 C 414.85 775.43 422.80 775.77 430.55 774.42 C 434.89 771.53 433.38 765.39 431.37 761.49 C 424.89 762.35 418.31 762.05 411.85 763.03 C 411.16 750.64 410.70 738.25 409.86 725.87 C 409.85 723.46 408.69 720.53 406.04 720.07 C 402.29 718.72 398.41 720.35 394.66 720.85 Z" />
<path fill="#fe0000" opacity="1.00" d=" M 146.21 852.64 C 146.91 854.48 147.38 856.65 148.96 857.99 C 151.70 859.67 154.94 860.16 158.01 860.94 C 172.81 864.02 187.18 868.82 201.97 871.89 C 206.20 872.89 210.67 871.37 214.81 872.75 C 209.33 874.91 203.44 875.78 197.94 877.93 C 177.14 885.21 158.91 898.03 141.66 911.47 C 141.56 900.64 141.26 889.78 142.22 878.98 C 142.74 870.12 143.38 861.11 146.21 852.64 Z" />
<path fill="#fe0000" opacity="1.00" d=" M 848.39 859.28 C 851.72 858.70 853.09 855.45 853.87 852.55 C 856.56 859.72 856.94 867.50 857.67 875.06 C 858.92 887.04 858.50 899.09 858.51 911.11 C 854.37 908.86 851.00 905.44 847.08 902.84 C 830.42 890.68 812.25 879.89 792.07 874.89 C 789.72 874.29 787.37 873.61 785.18 872.57 C 786.77 872.33 788.38 872.10 790.02 872.18 C 799.97 872.97 809.29 868.72 818.90 866.84 C 828.57 863.72 838.63 862.06 848.39 859.28 Z" />
</g>
<g id="#c10000ff">
<path fill="#c10000" opacity="1.00" d=" M 154.02 807.27 C 166.09 802.21 178.86 798.35 191.99 797.63 C 194.26 797.35 194.72 800.11 195.46 801.65 C 202.24 820.44 209.26 839.15 216.03 857.95 C 216.77 859.40 217.13 861.58 219.04 861.92 C 225.37 863.78 232.19 862.70 238.27 860.43 C 246.46 857.20 254.55 853.64 263.00 851.16 C 259.15 860.88 248.96 866.51 239.07 868.21 C 230.95 869.54 223.03 871.96 214.81 872.75 C 210.67 871.37 206.20 872.89 201.97 871.89 C 187.18 868.82 172.81 864.02 158.01 860.94 C 154.94 860.16 151.70 859.67 148.96 857.99 C 147.38 856.65 146.91 854.48 146.21 852.64 C 146.17 851.08 146.28 849.55 146.34 848.02 C 131.70 844.59 116.70 843.04 102.04 839.71 C 104.54 836.96 107.55 834.79 110.57 832.66 C 124.05 822.62 138.57 813.91 154.02 807.27 Z" />
<path fill="#c10000" opacity="1.00" d=" M 804.94 801.03 C 805.51 799.65 806.04 797.45 807.99 797.63 C 825.59 798.64 842.48 804.88 858.03 812.90 C 868.62 818.31 878.71 824.67 888.29 831.73 C 891.66 834.23 895.32 836.48 898.01 839.78 C 883.35 842.99 868.39 844.64 853.77 848.03 C 853.80 849.52 853.91 851.03 853.87 852.55 C 853.09 855.45 851.72 858.70 848.39 859.28 C 838.63 862.06 828.57 863.72 818.90 866.84 C 809.29 868.72 799.97 872.97 790.02 872.18 C 788.38 872.10 786.77 872.33 785.18 872.57 C 777.35 872.23 769.85 869.59 762.13 868.41 C 751.92 866.85 741.13 861.31 737.21 851.20 C 746.43 853.72 755.01 858.08 764.03 861.15 C 769.89 862.93 776.49 863.82 782.31 861.43 C 783.08 860.36 783.59 859.15 784.09 857.95 C 791.00 838.96 798.00 820.01 804.94 801.03 Z" />
</g>
</svg>
