<?xml version="1.0" encoding="iso-8859-1"?>
<!-- Generator: Adobe Illustrator 19.0.0, SVG Export Plug-In . SVG Version: 6.00 Build 0)  -->
<svg version="1.1" id="Layer_1" xmlns="http://www.w3.org/2000/svg" xmlns:xlink="http://www.w3.org/1999/xlink" x="0px" y="0px"
	 viewBox="0 0 512 512" style="enable-background:new 0 0 512 512;" xml:space="preserve">
<polygon style="fill:#ED5D51;" points="213.942,95.508 213.942,95.508 134.079,95.508 134.079,95.508 134.079,16.701 
	134.079,16.701 213.942,16.701 213.942,16.701 "/>
<rect x="134.081" y="16.701" style="opacity:0.1;fill:#414042;enable-background:new    ;" width="33.656" height="78.806"/>
<path style="fill:#D84F48;" d="M56.584,246.299v239.547C56.584,500.29,68.369,512,82.91,512h346.181
	c14.539,0,26.325-11.71,26.325-26.154V246.299H56.584z"/>
<path style="opacity:0.1;fill:#414042;enable-background:new    ;" d="M90.004,485.846V246.299h-33.42v239.547
	C56.584,500.29,68.369,512,82.91,512h33.42C101.79,512,90.004,500.29,90.004,485.846z"/>
<path style="fill:#B84F48;" d="M229.154,32.745c0,4.173-3.405,7.556-7.607,7.556h-95.075c-4.202,0-7.607-3.382-7.607-7.556V7.557
	c0-4.173,3.405-7.557,7.607-7.557h95.075c4.202,0,7.607,3.383,7.607,7.557V32.745z"/>
<path style="opacity:0.1;fill:#414042;enable-background:new    ;" d="M152.521,32.745V7.557c0-4.173,3.406-7.557,7.607-7.557
	h-33.656c-4.202,0-7.607,3.383-7.607,7.557v25.188c0,4.173,3.405,7.556,7.607,7.556h33.656
	C155.928,40.301,152.521,36.918,152.521,32.745z"/>
<path style="fill:#00997C;" d="M304.204,304.484h-96.408c-11.831,0-21.424,9.528-21.424,21.284V512h139.255V325.768
	C325.628,314.013,316.033,304.484,304.204,304.484z"/>
<g>
	<rect x="214.225" y="333.239" style="fill:#00B494;" width="81.409" height="37.203"/>
	<rect x="214.225" y="395.745" style="fill:#00B494;" width="81.409" height="88.586"/>
</g>
<g>
	<path style="fill:#F0D355;" d="M150.039,413.923c0,4.333-3.536,7.846-7.897,7.846h-39.488c-4.361,0-7.898-3.513-7.898-7.846V347.23
		c0-4.333,3.536-7.846,7.898-7.846h39.489c4.361,0,7.897,3.513,7.897,7.846v66.693H150.039z"/>
	<path style="fill:#F0D355;" d="M417.243,413.923c0,4.333-3.537,7.846-7.898,7.846h-39.488c-4.36,0-7.897-3.513-7.897-7.846V347.23
		c0-4.333,3.537-7.846,7.897-7.846h39.488c4.362,0,7.898,3.513,7.898,7.846L417.243,413.923L417.243,413.923z"/>
</g>
<path style="fill:#00997C;" d="M32.448,274.965c-8.675,0-16.692-4.619-21.029-12.122c-4.337-7.5-4.337-16.742,0-24.243
	L98.548,87.931c4.337-7.501,12.355-12.122,21.029-12.122h272.845c8.674,0,16.693,4.619,21.03,12.122L500.579,238.6
	c4.339,7.501,4.339,16.742,0,24.243c-4.336,7.501-12.353,12.122-21.028,12.122L32.448,274.965L32.448,274.965z"/>
<path id="SVGCleanerId_0" style="fill:#F1F2F2;" d="M413.451,87.931c-4.336-7.501-12.356-12.122-21.03-12.122H119.577
	c-8.674,0-16.691,4.619-21.029,12.122L29.796,206.823c8.127,3.776,17.181,5.897,26.737,5.897c20.235,0,38.245-9.467,49.867-24.193
	c11.621,14.727,29.631,24.193,49.867,24.193s38.245-9.467,49.867-24.193c11.621,14.726,29.631,24.193,49.867,24.193
	c20.234,0,38.244-9.467,49.866-24.193c11.621,14.727,29.631,24.193,49.868,24.193c20.236,0,38.246-9.467,49.868-24.193
	c11.621,14.727,29.631,24.193,49.866,24.193c9.557,0,18.611-2.121,26.737-5.897L413.451,87.931z"/>
<g>
	<path id="SVGCleanerId_0_1_" style="fill:#F1F2F2;" d="M413.451,87.931c-4.336-7.501-12.356-12.122-21.03-12.122H119.577
		c-8.674,0-16.691,4.619-21.029,12.122L29.796,206.823c8.127,3.776,17.181,5.897,26.737,5.897c20.235,0,38.245-9.467,49.867-24.193
		c11.621,14.727,29.631,24.193,49.867,24.193s38.245-9.467,49.867-24.193c11.621,14.726,29.631,24.193,49.867,24.193
		c20.234,0,38.244-9.467,49.866-24.193c11.621,14.727,29.631,24.193,49.868,24.193c20.236,0,38.246-9.467,49.868-24.193
		c11.621,14.727,29.631,24.193,49.866,24.193c9.557,0,18.611-2.121,26.737-5.897L413.451,87.931z"/>
</g>
<path style="opacity:0.1;fill:#414042;enable-background:new    ;" d="M56.609,262.844c-4.337-7.5-4.337-16.742,0-24.243
	l87.129-150.669c4.337-7.501,12.355-12.122,21.029-12.122h-45.189c-8.674,0-16.691,4.619-21.029,12.122l-87.13,150.669
	c-4.337,7.501-4.337,16.742,0,24.243c4.336,7.501,12.354,12.122,21.029,12.122h45.19C68.963,274.965,60.945,270.345,56.609,262.844z
	"/>
<g>
</g>
<g>
</g>
<g>
</g>
<g>
</g>
<g>
</g>
<g>
</g>
<g>
</g>
<g>
</g>
<g>
</g>
<g>
</g>
<g>
</g>
<g>
</g>
<g>
</g>
<g>
</g>
<g>
</g>
</svg>
