<?xml version="1.0" encoding="UTF-8" ?>
<!DOCTYPE svg PUBLIC "-//W3C//DTD SVG 1.1//EN" "http://www.w3.org/Graphics/SVG/1.1/DTD/svg11.dtd">
<svg width="1000pt" height="1000pt" viewBox="0 0 1000 1000" version="1.1" xmlns="http://www.w3.org/2000/svg">
<g id="#3a5569ff">
<path fill="#3a5569" opacity="1.00" d=" M 499.39 0.00 L 500.19 0.00 C 625.26 53.64 750.56 106.77 875.68 160.29 C 875.58 298.53 875.71 436.77 875.62 575.00 C 871.30 627.35 852.88 677.72 827.47 723.40 C 816.48 743.27 803.77 762.13 790.34 780.41 C 767.33 773.06 744.08 766.44 720.51 761.12 C 740.03 738.35 758.67 714.61 773.27 688.32 C 796.25 647.35 811.25 601.23 812.27 554.03 C 811.83 499.67 812.29 445.31 811.99 390.95 C 812.08 334.27 812.04 277.60 812.21 220.93 C 812.13 216.00 812.59 211.02 811.68 206.15 C 811.35 203.93 809.70 202.18 807.70 201.33 C 705.06 160.29 602.24 119.68 499.87 77.96 C 499.82 58.29 499.98 38.62 499.87 18.95 C 499.81 12.79 500.29 6.60 499.44 0.48 L 499.39 0.00 Z" />
<path fill="#3a5569" opacity="1.00" d=" M 279.86 858.20 C 282.43 860.28 284.95 862.45 287.31 864.78 C 284.67 862.76 282.21 860.53 279.86 858.20 Z" />
<path fill="#3a5569" opacity="1.00" d=" M 605.71 859.94 C 621.80 863.11 637.81 867.08 653.11 873.08 C 663.57 877.30 674.03 882.12 682.73 889.44 C 627.15 933.87 565.23 969.76 500.95 1000.00 L 499.30 1000.00 L 499.33 999.80 C 500.29 993.23 499.89 986.60 499.87 980.01 C 499.78 960.81 500.07 941.62 499.76 922.43 C 536.36 903.92 572.41 883.98 605.71 859.94 Z" />
</g>
<g id="#647a8aff">
<path fill="#647a8a" opacity="1.00" d=" M 124.34 160.44 C 249.35 107.06 374.38 53.72 499.44 0.48 C 500.29 6.60 499.81 12.79 499.87 18.95 C 499.98 38.62 499.82 58.29 499.87 77.96 C 499.87 78.44 499.87 79.38 499.87 79.86 C 487.52 83.02 475.83 88.17 464.10 93.06 C 396.51 120.15 328.83 147.01 261.30 174.24 C 240.64 182.72 219.68 190.44 199.08 199.08 C 195.37 200.51 191.65 201.98 188.26 204.10 C 187.30 285.74 187.97 367.39 187.80 449.03 C 187.81 476.02 187.78 503.00 187.77 529.99 C 187.78 552.73 188.81 575.59 193.18 597.96 C 200.06 633.18 214.03 666.79 232.58 697.43 C 246.25 720.17 262.53 741.23 280.15 761.02 C 256.23 766.41 232.60 773.02 209.27 780.58 C 169.78 727.52 139.35 666.53 127.90 601.00 C 126.65 591.35 125.23 581.71 124.45 572.02 C 124.31 434.83 124.52 297.63 124.34 160.44 Z" />
<path fill="#647a8a" opacity="1.00" d=" M 341.91 874.93 C 358.66 867.88 376.37 863.51 394.13 859.92 C 416.01 874.68 438.38 888.72 461.43 901.59 C 473.90 908.44 486.17 915.88 499.73 920.45 C 499.74 920.95 499.75 921.94 499.76 922.43 C 500.07 941.62 499.78 960.81 499.87 980.01 C 499.89 986.60 500.29 993.23 499.33 999.80 C 433.89 969.92 371.19 933.43 314.97 888.40 C 315.35 888.63 316.10 889.10 316.48 889.33 C 324.13 883.21 332.92 878.73 341.91 874.93 Z" />
<path fill="#647a8a" opacity="1.00" d=" M 287.64 865.07 C 290.70 867.23 293.57 869.66 296.12 872.42 C 293.10 870.20 290.28 867.72 287.64 865.07 Z" />
<path fill="#647a8a" opacity="1.00" d=" M 296.51 872.77 C 298.47 872.90 300.06 874.29 300.47 876.23 C 298.72 875.65 297.28 874.43 296.51 872.77 Z" />
<path fill="#647a8a" opacity="1.00" d=" M 301.03 876.53 C 301.49 876.95 302.42 877.78 302.88 878.19 C 302.42 877.78 301.49 876.95 301.03 876.53 Z" />
<path fill="#647a8a" opacity="1.00" d=" M 303.54 878.72 C 305.05 878.88 306.00 879.71 306.40 881.19 C 304.96 880.91 304.01 880.08 303.54 878.72 Z" />
</g>
<g id="#2f988cff">
<path fill="#2f988c" opacity="1.00" d=" M 499.87 77.96 C 602.24 119.68 705.06 160.29 807.70 201.33 C 809.70 202.18 811.35 203.93 811.68 206.15 C 812.59 211.02 812.13 216.00 812.21 220.93 C 812.04 277.60 812.08 334.27 811.99 390.95 C 812.29 445.31 811.83 499.67 812.27 554.03 C 811.25 601.23 796.25 647.35 773.27 688.32 C 758.67 714.61 740.03 738.35 720.51 761.12 C 648.32 744.80 574.22 737.76 500.26 737.53 C 500.47 713.02 500.34 688.51 500.22 664.01 C 499.02 654.68 499.96 645.31 499.64 635.95 C 500.99 611.30 499.85 586.61 499.97 561.95 C 500.24 510.31 500.03 458.66 499.96 407.02 C 500.25 351.37 500.34 295.71 500.36 240.06 C 500.39 186.66 500.42 133.25 499.87 79.86 C 499.87 79.38 499.87 78.44 499.87 77.96 M 530.89 221.33 C 524.21 222.60 519.77 228.80 517.91 234.95 C 515.93 240.78 516.45 246.98 516.40 253.02 C 516.38 340.01 516.46 427.01 516.39 514.00 C 516.21 525.79 519.49 539.20 530.04 545.93 C 541.80 553.68 556.16 555.94 569.94 556.97 C 577.16 556.77 585.90 557.10 590.90 550.87 C 596.54 544.02 597.44 534.59 597.31 526.04 C 597.55 496.30 596.78 466.56 597.73 436.83 C 606.01 444.23 611.65 453.92 618.61 462.46 C 645.13 497.28 671.43 532.26 698.05 566.99 C 704.03 574.54 710.09 582.52 718.66 587.28 C 726.05 591.53 735.22 589.88 742.60 586.47 C 751.16 582.22 759.30 576.90 766.06 570.09 C 770.68 565.37 774.22 558.71 772.75 551.93 C 770.81 540.24 763.13 530.75 756.29 521.48 C 725.86 481.72 692.67 444.20 659.88 406.40 C 693.25 379.03 728.11 353.33 759.06 323.14 C 765.46 316.75 771.75 309.23 773.07 299.98 C 773.82 291.34 769.02 283.54 763.85 277.05 C 757.60 269.06 750.35 261.89 742.60 255.38 C 736.68 250.60 729.85 246.05 721.99 245.80 C 714.85 245.88 708.48 249.75 703.16 254.19 C 698.02 258.55 693.13 263.22 688.64 268.24 L 688.60 268.37 C 681.51 274.57 675.06 281.46 668.38 288.08 C 663.61 291.45 660.02 296.24 655.80 300.26 C 649.70 305.55 644.05 311.34 638.36 317.06 C 634.05 320.06 630.77 324.32 626.81 327.77 C 616.99 336.55 608.27 346.56 597.71 354.49 C 596.71 323.34 597.75 292.17 597.16 261.01 C 596.53 252.91 595.85 244.01 590.53 237.45 C 582.89 228.57 571.23 224.72 560.15 222.28 C 550.50 220.95 540.55 218.89 530.89 221.33 M 503.95 607.58 C 502.90 619.69 503.29 631.85 503.21 644.00 C 503.31 648.51 502.76 653.25 504.46 657.55 C 506.82 659.63 510.18 659.75 513.12 660.39 C 516.40 654.82 515.43 648.22 515.73 642.07 C 522.79 648.69 527.11 657.86 534.95 663.68 C 538.78 664.20 541.26 660.57 543.75 658.29 C 538.01 650.61 531.91 643.21 525.69 635.91 C 531.20 630.57 538.05 626.42 542.26 619.86 C 542.98 615.20 537.62 612.94 535.05 609.90 C 528.58 615.73 522.40 621.88 515.80 627.56 C 515.51 621.68 515.30 615.80 514.84 609.93 C 511.21 609.09 507.59 608.30 503.95 607.58 M 549.76 633.66 C 541.46 641.77 544.11 656.43 552.64 663.35 C 560.27 669.67 571.19 669.82 580.35 667.31 C 579.58 664.05 578.72 660.77 577.06 657.84 C 570.56 657.27 562.50 658.73 557.92 652.86 C 565.34 653.42 572.79 653.45 580.20 654.19 C 581.13 649.77 582.59 644.93 580.54 640.61 C 575.82 629.10 559.04 625.86 549.76 633.66 M 589.49 638.50 C 580.15 646.85 583.24 663.23 593.16 669.82 C 599.85 674.53 608.78 675.48 616.56 673.37 C 621.12 671.29 618.58 663.43 613.94 663.38 C 608.13 663.13 600.54 663.94 597.10 658.08 C 601.24 658.27 605.34 658.99 609.50 659.04 C 612.77 659.01 617.11 660.54 619.43 657.39 C 621.62 654.41 620.75 650.47 619.79 647.23 C 616.08 635.30 599.11 631.20 589.49 638.50 M 626.60 639.92 C 626.46 657.00 625.55 674.12 626.90 691.19 C 630.10 692.66 633.59 693.25 637.07 693.67 C 637.27 687.31 637.91 680.96 637.71 674.60 C 641.26 676.17 645.00 677.67 648.96 677.60 C 653.80 677.89 657.93 674.30 660.31 670.39 C 665.54 660.79 660.23 647.70 650.34 643.55 C 642.84 640.36 634.46 641.44 626.60 639.92 M 670.78 650.83 C 662.68 658.98 665.32 673.43 673.79 680.33 C 681.19 686.79 691.82 686.20 700.91 684.83 C 700.53 681.50 700.93 677.23 697.84 675.08 C 691.47 673.85 683.31 675.71 678.90 669.70 C 685.58 669.88 692.20 671.25 698.89 671.12 C 703.32 669.40 703.46 663.47 702.22 659.56 C 698.67 646.81 680.43 642.20 670.78 650.83 M 709.13 650.73 C 707.99 663.07 707.93 675.52 709.13 687.86 C 712.88 687.85 716.64 687.86 720.40 687.99 C 720.53 680.41 719.25 672.53 721.92 665.23 C 726.25 665.31 730.57 665.59 734.89 665.80 C 735.35 662.82 735.83 659.85 736.36 656.90 C 734.20 655.25 731.83 653.52 728.98 653.60 C 722.27 653.50 715.63 652.36 709.13 650.73 Z" />
<path fill="#2f988c" opacity="1.00" d=" M 487.33 245.63 C 487.63 245.21 488.22 244.35 488.52 243.92 C 488.74 251.65 488.70 259.39 488.50 267.12 C 488.22 266.68 487.65 265.80 487.37 265.36 C 487.66 258.79 487.66 252.21 487.33 245.63 Z" />
<path fill="#2f988c" opacity="1.00" d=" M 437.33 380.73 L 438.70 379.72 C 439.13 387.26 439.03 394.86 438.74 402.41 L 437.35 401.52 C 437.87 394.60 437.95 387.64 437.33 380.73 Z" />
<path fill="#2f988c" opacity="1.00" d=" M 443.27 634.47 C 444.25 635.51 444.73 636.74 444.71 638.15 C 444.41 644.05 444.40 649.95 444.68 655.85 C 444.70 657.28 444.21 658.53 443.22 659.62 C 442.87 651.25 442.80 642.83 443.27 634.47 Z" />
<path fill="#2f988c" opacity="1.00" d=" M 557.72 645.81 C 559.50 641.65 564.51 640.59 568.56 641.44 C 569.55 643.21 570.13 645.16 570.89 647.06 C 566.63 645.68 562.12 646.04 557.72 645.81 Z" />
<path fill="#2f988c" opacity="1.00" d=" M 477.80 641.68 C 479.68 646.80 478.24 652.62 478.52 658.02 C 478.25 657.62 477.72 656.82 477.45 656.42 C 477.63 651.50 477.41 646.58 477.80 641.68 Z" />
<path fill="#2f988c" opacity="1.00" d=" M 597.48 651.87 C 598.55 649.47 599.86 646.12 603.02 646.19 C 606.33 646.14 608.11 649.50 609.90 651.78 C 605.76 651.63 601.61 651.63 597.48 651.87 Z" />
<path fill="#2f988c" opacity="1.00" d=" M 263.39 647.19 L 264.38 647.12 C 264.35 658.67 264.30 670.22 264.30 681.77 L 263.43 681.70 C 263.45 670.20 263.39 658.69 263.39 647.19 Z" />
<path fill="#2f988c" opacity="1.00" d=" M 638.71 654.08 C 642.17 654.23 646.22 653.60 649.02 656.15 C 650.45 659.07 649.61 662.46 649.76 665.59 C 646.27 665.38 641.77 665.81 639.57 662.47 C 638.51 659.81 638.84 656.86 638.71 654.08 Z" />
<path fill="#2f988c" opacity="1.00" d=" M 679.93 660.96 C 679.26 658.59 682.18 657.59 684.03 657.75 C 687.24 657.88 689.70 660.29 691.50 662.73 C 687.78 662.72 682.26 664.96 679.93 660.96 Z" />
<path fill="#2f988c" opacity="1.00" d=" M 311.36 687.94 C 311.39 685.84 311.17 683.62 312.17 681.69 C 312.33 687.98 312.48 694.28 312.50 700.59 C 312.24 700.96 311.73 701.70 311.47 702.07 C 311.25 697.36 311.44 692.65 311.36 687.94 Z" />
<path fill="#2f988c" opacity="1.00" d=" M 500.18 850.65 C 535.53 850.72 570.96 853.27 605.71 859.94 C 572.41 883.98 536.36 903.92 499.76 922.43 C 499.75 921.94 499.74 920.95 499.73 920.45 C 499.86 897.19 500.32 873.92 500.18 850.65 Z" />
</g>
<g id="#41c19dff">
<path fill="#41c19d" opacity="1.00" d=" M 464.10 93.06 C 475.83 88.17 487.52 83.02 499.87 79.86 C 500.42 133.25 500.39 186.66 500.36 240.06 C 500.34 295.71 500.25 351.37 499.96 407.02 C 500.03 458.66 500.24 510.31 499.97 561.95 C 499.85 586.61 500.99 611.30 499.64 635.95 C 499.96 645.31 499.02 654.68 500.22 664.01 C 500.34 688.51 500.47 713.02 500.26 737.53 C 426.35 737.76 352.30 744.76 280.15 761.02 C 262.53 741.23 246.25 720.17 232.58 697.43 C 214.03 666.79 200.06 633.18 193.18 597.96 C 188.81 575.59 187.78 552.73 187.77 529.99 C 187.78 503.00 187.81 476.02 187.80 449.03 C 187.97 367.39 187.30 285.74 188.26 204.10 C 191.65 201.98 195.37 200.51 199.08 199.08 C 219.68 190.44 240.64 182.72 261.30 174.24 C 328.83 147.01 396.51 120.15 464.10 93.06 M 438.06 223.79 C 388.75 232.48 339.43 241.16 290.11 249.82 C 276.83 252.47 263.15 253.68 250.40 258.48 C 243.96 261.07 237.61 264.84 233.86 270.86 C 228.10 279.75 227.09 290.69 227.36 301.02 C 227.39 387.35 227.36 473.68 227.37 560.00 C 227.46 567.61 228.16 575.84 233.00 582.07 C 236.24 586.41 241.76 588.27 246.98 588.64 C 256.72 589.24 266.52 588.16 276.00 585.94 C 283.97 583.80 292.08 580.87 298.27 575.23 C 306.62 566.85 308.62 554.31 308.33 542.96 C 308.52 513.32 307.60 483.67 308.81 454.05 C 332.85 450.27 356.79 445.87 380.75 441.60 C 392.83 439.10 405.29 438.10 416.93 433.82 C 421.91 432.01 426.35 428.77 429.48 424.48 C 434.34 417.82 436.33 409.58 437.35 401.52 L 438.74 402.41 C 439.03 394.86 439.13 387.26 438.70 379.72 L 437.33 380.73 C 436.25 373.98 435.23 366.76 430.79 361.28 C 428.22 357.93 423.95 356.66 419.99 355.89 C 409.92 354.30 399.96 357.16 390.08 358.74 C 362.99 363.63 335.80 368.04 308.78 373.33 C 307.96 357.96 307.77 342.53 308.86 327.17 C 347.90 320.61 386.86 313.58 425.84 306.69 C 436.89 304.73 448.01 303.04 458.96 300.53 C 466.95 298.54 475.18 295.13 480.40 288.47 C 485.40 281.85 486.66 273.40 487.37 265.36 C 487.65 265.80 488.22 266.68 488.50 267.12 C 488.70 259.39 488.74 251.65 488.52 243.92 C 488.22 244.35 487.63 245.21 487.33 245.63 C 486.67 239.41 485.99 232.87 482.41 227.53 C 479.21 222.81 473.43 220.60 467.92 220.31 C 457.84 219.73 447.89 221.88 438.06 223.79 M 474.96 628.85 C 471.34 627.18 467.09 625.16 463.17 627.10 C 457.67 629.72 451.46 629.45 445.55 629.15 C 445.28 632.15 444.90 635.14 444.71 638.15 C 444.73 636.74 444.25 635.51 443.27 634.47 C 442.80 642.83 442.87 651.25 443.22 659.62 C 444.21 658.53 444.70 657.28 444.68 655.85 C 444.88 659.36 445.35 662.85 445.73 666.34 C 449.26 665.39 453.96 665.48 456.09 661.97 C 457.17 655.39 456.18 648.63 457.30 642.05 C 458.09 638.50 464.31 638.44 465.01 642.07 C 466.01 648.71 465.66 655.47 465.80 662.16 C 469.16 662.16 472.53 662.00 475.88 661.71 C 476.44 659.95 477.03 658.21 477.45 656.42 C 477.72 656.82 478.25 657.62 478.52 658.02 C 478.24 652.62 479.68 646.80 477.80 641.68 C 477.32 637.77 481.89 636.92 484.47 635.35 C 486.98 643.08 486.58 651.33 486.56 659.34 C 490.28 659.10 493.99 658.86 497.72 658.80 C 498.95 650.99 499.46 642.96 498.36 635.11 C 497.41 630.65 495.64 625.36 490.95 623.65 C 485.11 622.26 479.54 625.60 474.96 628.85 M 331.84 630.93 C 331.39 647.99 330.57 665.12 332.37 682.14 C 335.64 681.50 338.89 680.79 342.12 679.99 C 343.79 673.75 343.49 667.26 343.81 660.87 C 350.14 660.04 356.41 658.80 362.71 657.81 C 363.16 654.02 363.43 650.21 363.51 646.40 C 356.97 646.84 350.43 647.23 343.91 647.83 C 343.83 645.60 343.76 643.39 343.69 641.18 C 351.60 639.91 359.81 640.10 367.46 637.48 C 372.30 636.30 371.02 630.07 371.37 626.34 C 358.03 625.96 344.88 628.51 331.84 630.93 M 412.57 633.68 C 410.54 645.74 411.46 658.01 411.88 670.17 C 414.64 669.90 417.51 670.15 420.18 669.30 C 423.56 668.03 423.14 663.85 423.41 660.94 C 423.74 655.50 422.47 649.43 425.51 644.57 C 429.33 642.81 433.64 642.81 437.70 641.97 C 438.31 639.31 439.09 636.68 439.38 633.97 C 438.95 632.03 437.26 629.82 435.02 630.56 C 427.59 631.93 420.22 634.34 412.57 633.68 M 312.17 681.69 C 311.17 683.62 311.39 685.84 311.36 687.94 C 311.44 692.65 311.25 697.36 311.47 702.07 C 311.73 701.70 312.24 700.96 312.50 700.59 L 312.49 701.61 C 314.41 701.40 316.33 701.19 318.25 700.99 C 318.28 679.02 318.40 657.06 318.17 635.09 C 316.43 635.03 314.68 634.98 312.94 634.94 C 312.13 650.51 312.05 666.10 312.17 681.69 M 285.45 644.37 C 279.43 649.04 271.41 647.52 264.38 647.12 L 263.39 647.19 C 263.39 658.69 263.45 670.20 263.43 681.70 L 264.30 681.77 C 271.67 682.80 279.97 683.86 286.55 679.55 C 293.22 675.43 300.82 671.78 308.89 673.08 C 309.67 660.87 309.46 648.60 308.61 636.39 C 299.88 633.51 292.05 639.48 285.45 644.37 M 382.27 637.33 C 372.34 641.17 364.81 652.43 367.80 663.16 C 369.73 671.01 378.09 676.30 386.03 675.10 C 399.21 673.79 409.48 658.90 404.71 646.22 C 401.52 637.50 390.50 634.11 382.27 637.33 Z" />
<path fill="#41c19d" opacity="1.00" d=" M 384.28 649.35 C 386.74 648.92 389.70 648.66 391.88 650.10 C 394.82 654.14 392.94 661.04 387.96 662.45 C 385.20 663.00 381.68 662.54 380.14 659.89 C 378.61 656.04 380.37 650.99 384.28 649.35 Z" />
<path fill="#41c19d" opacity="1.00" d=" M 394.13 859.92 C 429.07 853.32 464.66 850.69 500.18 850.65 C 500.32 873.92 499.86 897.19 499.73 920.45 C 486.17 915.88 473.90 908.44 461.43 901.59 C 438.38 888.72 416.01 874.68 394.13 859.92 Z" />
</g>
<g id="#e1e6e8ff">
<path fill="#e1e6e8" opacity="1.00" d=" M 530.89 221.33 C 540.55 218.89 550.50 220.95 560.15 222.28 C 571.23 224.72 582.89 228.57 590.53 237.45 C 595.85 244.01 596.53 252.91 597.16 261.01 C 597.75 292.17 596.71 323.34 597.71 354.49 C 608.27 346.56 616.99 336.55 626.81 327.77 C 630.77 324.32 634.05 320.06 638.36 317.06 C 643.56 315.07 646.74 310.28 650.75 306.72 C 652.59 304.72 655.25 303.11 655.80 300.26 C 660.02 296.24 663.61 291.45 668.38 288.08 C 674.31 285.52 677.94 279.85 682.67 275.71 C 684.67 273.34 688.05 271.66 688.60 268.37 L 688.64 268.24 C 693.13 263.22 698.02 258.55 703.16 254.19 C 708.48 249.75 714.85 245.88 721.99 245.80 C 729.85 246.05 736.68 250.60 742.60 255.38 C 750.35 261.89 757.60 269.06 763.85 277.05 C 769.02 283.54 773.82 291.34 773.07 299.98 C 771.75 309.23 765.46 316.75 759.06 323.14 C 728.11 353.33 693.25 379.03 659.88 406.40 C 692.67 444.20 725.86 481.72 756.29 521.48 C 763.13 530.75 770.81 540.24 772.75 551.93 C 774.22 558.71 770.68 565.37 766.06 570.09 C 759.30 576.90 751.16 582.22 742.60 586.47 C 735.22 589.88 726.05 591.53 718.66 587.28 C 710.09 582.52 704.03 574.54 698.05 566.99 C 671.43 532.26 645.13 497.28 618.61 462.46 C 611.65 453.92 606.01 444.23 597.73 436.83 C 596.78 466.56 597.55 496.30 597.31 526.04 C 597.44 534.59 596.54 544.02 590.90 550.87 C 585.90 557.10 577.16 556.77 569.94 556.97 C 556.16 555.94 541.80 553.68 530.04 545.93 C 519.49 539.20 516.21 525.79 516.39 514.00 C 516.46 427.01 516.38 340.01 516.40 253.02 C 516.45 246.98 515.93 240.78 517.91 234.95 C 519.77 228.80 524.21 222.60 530.89 221.33 Z" />
<path fill="#e1e6e8" opacity="1.00" d=" M 503.95 607.58 C 507.59 608.30 511.21 609.09 514.84 609.93 C 515.30 615.80 515.51 621.68 515.80 627.56 C 522.40 621.88 528.58 615.73 535.05 609.90 C 537.62 612.94 542.98 615.20 542.26 619.86 C 538.05 626.42 531.20 630.57 525.69 635.91 C 531.91 643.21 538.01 650.61 543.75 658.29 C 541.26 660.57 538.78 664.20 534.95 663.68 C 527.11 657.86 522.79 648.69 515.73 642.07 C 515.43 648.22 516.40 654.82 513.12 660.39 C 510.18 659.75 506.82 659.63 504.46 657.55 C 502.76 653.25 503.31 648.51 503.21 644.00 C 503.29 631.85 502.90 619.69 503.95 607.58 Z" />
<path fill="#e1e6e8" opacity="1.00" d=" M 549.76 633.66 C 559.04 625.86 575.82 629.10 580.54 640.61 C 582.59 644.93 581.13 649.77 580.20 654.19 C 572.79 653.45 565.34 653.42 557.92 652.86 C 562.50 658.73 570.56 657.27 577.06 657.84 C 578.72 660.77 579.58 664.05 580.35 667.31 C 571.19 669.82 560.27 669.67 552.64 663.35 C 544.11 656.43 541.46 641.77 549.76 633.66 M 557.72 645.81 C 562.12 646.04 566.63 645.68 570.89 647.06 C 570.13 645.16 569.55 643.21 568.56 641.44 C 564.51 640.59 559.50 641.65 557.72 645.81 Z" />
<path fill="#e1e6e8" opacity="1.00" d=" M 589.49 638.50 C 599.11 631.20 616.08 635.30 619.79 647.23 C 619.09 650.61 619.54 654.57 617.46 657.47 C 614.90 658.39 612.17 658.70 609.50 659.04 C 605.34 658.99 601.24 658.27 597.10 658.08 C 600.54 663.94 608.13 663.13 613.94 663.38 C 618.58 663.43 621.12 671.29 616.56 673.37 C 608.78 675.48 599.85 674.53 593.16 669.82 C 583.24 663.23 580.15 646.85 589.49 638.50 M 597.48 651.87 C 601.61 651.63 605.76 651.63 609.90 651.78 C 608.11 649.50 606.33 646.14 603.02 646.19 C 599.86 646.12 598.55 649.47 597.48 651.87 Z" />
<path fill="#e1e6e8" opacity="1.00" d=" M 626.60 639.92 C 634.46 641.44 642.84 640.36 650.34 643.55 C 660.23 647.70 665.54 660.79 660.31 670.39 C 657.93 674.30 653.80 677.89 648.96 677.60 C 645.00 677.67 641.26 676.17 637.71 674.60 C 637.91 680.96 637.27 687.31 637.07 693.67 C 633.59 693.25 630.10 692.66 626.90 691.19 C 625.55 674.12 626.46 657.00 626.60 639.92 M 638.71 654.08 C 638.84 656.86 638.51 659.81 639.57 662.47 C 641.77 665.81 646.27 665.38 649.76 665.59 C 649.61 662.46 650.45 659.07 649.02 656.15 C 646.22 653.60 642.17 654.23 638.71 654.08 Z" />
<path fill="#e1e6e8" opacity="1.00" d=" M 670.78 650.83 C 680.43 642.20 698.67 646.81 702.22 659.56 C 703.46 663.47 703.32 669.40 698.89 671.12 C 692.20 671.25 685.58 669.88 678.90 669.70 C 683.31 675.71 691.47 673.85 697.84 675.08 C 700.93 677.23 700.53 681.50 700.91 684.83 C 691.82 686.20 681.19 686.79 673.79 680.33 C 665.32 673.43 662.68 658.98 670.78 650.83 M 679.93 660.96 C 682.26 664.96 687.78 662.72 691.50 662.73 C 689.70 660.29 687.24 657.88 684.03 657.75 C 682.18 657.59 679.26 658.59 679.93 660.96 Z" />
<path fill="#e1e6e8" opacity="1.00" d=" M 709.13 650.73 C 715.63 652.36 722.27 653.50 728.98 653.60 C 731.83 653.52 734.20 655.25 736.36 656.90 C 735.83 659.85 735.35 662.82 734.89 665.80 C 730.57 665.59 726.25 665.31 721.92 665.23 C 719.25 672.53 720.53 680.41 720.40 687.99 C 716.64 687.86 712.88 687.85 709.13 687.86 C 707.93 675.52 707.99 663.07 709.13 650.73 Z" />
</g>
<g id="#ffffffff">
<path fill="#ffffff" opacity="1.00" d=" M 438.06 223.79 C 447.89 221.88 457.84 219.73 467.92 220.31 C 473.43 220.60 479.21 222.81 482.41 227.53 C 485.99 232.87 486.67 239.41 487.33 245.63 C 487.66 252.21 487.66 258.79 487.37 265.36 C 486.66 273.40 485.40 281.85 480.40 288.47 C 475.18 295.13 466.95 298.54 458.96 300.53 C 448.01 303.04 436.89 304.73 425.84 306.69 C 386.86 313.58 347.90 320.61 308.86 327.17 C 307.77 342.53 307.96 357.96 308.78 373.33 C 335.80 368.04 362.99 363.63 390.08 358.74 C 399.96 357.16 409.92 354.30 419.99 355.89 C 423.95 356.66 428.22 357.93 430.79 361.28 C 435.23 366.76 436.25 373.98 437.33 380.73 C 437.95 387.64 437.87 394.60 437.35 401.52 C 436.33 409.58 434.34 417.82 429.48 424.48 C 426.35 428.77 421.91 432.01 416.93 433.82 C 405.29 438.10 392.83 439.10 380.75 441.60 C 356.79 445.87 332.85 450.27 308.81 454.05 C 307.60 483.67 308.52 513.32 308.33 542.96 C 308.62 554.31 306.62 566.85 298.27 575.23 C 292.08 580.87 283.97 583.80 276.00 585.94 C 266.52 588.16 256.72 589.24 246.98 588.64 C 241.76 588.27 236.24 586.41 233.00 582.07 C 228.16 575.84 227.46 567.61 227.37 560.00 C 227.36 473.68 227.39 387.35 227.36 301.02 C 227.09 290.69 228.10 279.75 233.86 270.86 C 237.61 264.84 243.96 261.07 250.40 258.48 C 263.15 253.68 276.83 252.47 290.11 249.82 C 339.43 241.16 388.75 232.48 438.06 223.79 Z" />
<path fill="#ffffff" opacity="1.00" d=" M 668.38 288.08 C 675.06 281.46 681.51 274.57 688.60 268.37 C 688.05 271.66 684.67 273.34 682.67 275.71 C 677.94 279.85 674.31 285.52 668.38 288.08 Z" />
<path fill="#ffffff" opacity="1.00" d=" M 638.36 317.06 C 644.05 311.34 649.70 305.55 655.80 300.26 C 655.25 303.11 652.59 304.72 650.75 306.72 C 646.74 310.28 643.56 315.07 638.36 317.06 Z" />
<path fill="#ffffff" opacity="1.00" d=" M 474.96 628.85 C 479.54 625.60 485.11 622.26 490.95 623.65 C 495.64 625.36 497.41 630.65 498.36 635.11 C 499.46 642.96 498.95 650.99 497.72 658.80 C 493.99 658.86 490.28 659.10 486.56 659.34 C 486.58 651.33 486.98 643.08 484.47 635.35 C 481.89 636.92 477.32 637.77 477.80 641.68 C 477.41 646.58 477.63 651.50 477.45 656.42 C 477.03 658.21 476.44 659.95 475.88 661.71 C 472.53 662.00 469.16 662.16 465.80 662.16 C 465.66 655.47 466.01 648.71 465.01 642.07 C 464.31 638.44 458.09 638.50 457.30 642.05 C 456.18 648.63 457.17 655.39 456.09 661.97 C 453.96 665.48 449.26 665.39 445.73 666.34 C 445.35 662.85 444.88 659.36 444.68 655.85 C 444.40 649.95 444.41 644.05 444.71 638.15 C 444.90 635.14 445.28 632.15 445.55 629.15 C 451.46 629.45 457.67 629.72 463.17 627.10 C 467.09 625.16 471.34 627.18 474.96 628.85 Z" />
<path fill="#ffffff" opacity="1.00" d=" M 331.84 630.93 C 344.88 628.51 358.03 625.96 371.37 626.34 C 371.02 630.07 372.30 636.30 367.46 637.48 C 359.81 640.10 351.60 639.91 343.69 641.18 C 343.76 643.39 343.83 645.60 343.91 647.83 C 350.43 647.23 356.97 646.84 363.51 646.40 C 363.43 650.21 363.16 654.02 362.71 657.81 C 356.41 658.80 350.14 660.04 343.81 660.87 C 343.49 667.26 343.79 673.75 342.12 679.99 C 338.89 680.79 335.64 681.50 332.37 682.14 C 330.57 665.12 331.39 647.99 331.84 630.93 Z" />
<path fill="#ffffff" opacity="1.00" d=" M 412.57 633.68 C 420.22 634.34 427.59 631.93 435.02 630.56 C 437.26 629.82 438.95 632.03 439.38 633.97 C 439.09 636.68 438.31 639.31 437.70 641.97 C 433.64 642.81 429.33 642.81 425.51 644.57 C 422.47 649.43 423.74 655.50 423.41 660.94 C 423.14 663.85 423.56 668.03 420.18 669.30 C 417.51 670.15 414.64 669.90 411.88 670.17 C 411.46 658.01 410.54 645.74 412.57 633.68 Z" />
<path fill="#ffffff" opacity="1.00" d=" M 312.17 681.69 C 312.05 666.10 312.13 650.51 312.94 634.94 C 314.68 634.98 316.43 635.03 318.17 635.09 C 318.40 657.06 318.28 679.02 318.25 700.99 C 316.33 701.19 314.41 701.40 312.49 701.61 L 312.50 700.59 C 312.48 694.28 312.33 687.98 312.17 681.69 Z" />
<path fill="#ffffff" opacity="1.00" d=" M 285.45 644.37 C 292.05 639.48 299.88 633.51 308.61 636.39 C 309.46 648.60 309.67 660.87 308.89 673.08 C 300.82 671.78 293.22 675.43 286.55 679.55 C 279.97 683.86 271.67 682.80 264.30 681.77 C 264.30 670.22 264.35 658.67 264.38 647.12 C 271.41 647.52 279.43 649.04 285.45 644.37 Z" />
<path fill="#ffffff" opacity="1.00" d=" M 382.27 637.33 C 390.50 634.11 401.52 637.50 404.71 646.22 C 409.48 658.90 399.21 673.79 386.03 675.10 C 378.09 676.30 369.73 671.01 367.80 663.16 C 364.81 652.43 372.34 641.17 382.27 637.33 M 384.28 649.35 C 380.37 650.99 378.61 656.04 380.14 659.89 C 381.68 662.54 385.20 663.00 387.96 662.45 C 392.94 661.04 394.82 654.14 391.88 650.10 C 389.70 648.66 386.74 648.92 384.28 649.35 Z" />
<path fill="#ffffff" opacity="1.00" d=" M 617.46 657.47 C 619.54 654.57 619.09 650.61 619.79 647.23 C 620.75 650.47 621.62 654.41 619.43 657.39 C 617.11 660.54 612.77 659.01 609.50 659.04 C 612.17 658.70 614.90 658.39 617.46 657.47 Z" />
<path fill="#ffffff" opacity="1.00" d=" M 443.46 772.65 C 446.94 771.14 451.48 774.06 450.79 778.00 C 450.79 782.63 443.74 784.44 441.23 780.72 C 439.03 778.18 440.22 773.69 443.46 772.65 Z" />
<path fill="#ffffff" opacity="1.00" d=" M 460.66 774.90 C 463.26 774.53 465.99 773.94 468.59 774.68 C 471.72 776.57 470.42 780.87 470.84 783.91 C 474.95 782.86 479.60 782.43 483.39 784.70 C 491.10 789.10 492.29 800.60 487.30 807.46 C 483.16 812.29 475.98 813.20 470.03 812.08 C 466.57 811.19 462.09 809.56 461.72 805.41 C 461.17 795.25 461.45 785.04 460.66 774.90 M 470.88 791.70 C 471.08 795.84 471.55 799.97 471.38 804.12 C 473.45 804.55 475.65 804.91 477.70 804.11 C 480.98 801.48 480.85 796.32 479.04 792.91 C 477.20 790.09 473.56 790.53 470.88 791.70 Z" />
<path fill="#ffffff" opacity="1.00" d=" M 535.63 778.26 C 538.55 778.10 541.98 777.38 544.47 779.37 C 545.43 781.51 544.84 784.02 545.00 786.32 C 547.47 786.71 550.39 785.98 552.55 787.29 C 553.11 789.32 553.63 792.23 551.78 793.77 C 549.45 794.22 547.06 793.94 544.72 793.90 C 544.51 796.96 544.07 800.01 544.08 803.09 C 545.07 805.98 548.89 804.98 551.23 805.01 C 552.20 807.52 552.23 811.18 549.14 812.16 C 543.56 813.89 534.84 811.99 534.46 804.95 C 534.46 796.05 535.61 787.17 535.63 778.26 Z" />
<path fill="#ffffff" opacity="1.00" d=" M 597.39 780.05 C 600.52 780.23 605.12 779.35 606.57 783.04 C 606.77 785.59 606.03 788.08 605.58 790.58 C 610.17 790.02 615.29 790.91 618.62 794.34 C 624.17 799.74 623.57 809.24 619.08 815.11 C 614.45 820.68 606.05 820.52 599.82 818.10 C 596.54 816.67 592.32 814.16 593.02 809.95 C 594.21 799.95 596.04 790.03 597.39 780.05 M 604.65 797.90 C 603.80 802.10 603.34 806.36 602.57 810.58 C 604.85 811.48 607.54 812.59 609.80 811.00 C 612.56 808.64 613.00 804.42 612.16 801.08 C 611.16 797.93 607.40 797.66 604.65 797.90 Z" />
<path fill="#ffffff" opacity="1.00" d=" M 498.17 782.77 C 500.74 782.47 503.42 782.03 505.94 782.88 C 507.93 783.83 507.99 786.09 507.89 788.01 C 507.89 792.31 507.58 796.63 507.94 800.93 C 508.69 804.26 512.90 803.42 515.40 803.27 C 515.26 796.58 515.63 789.90 515.57 783.22 C 518.52 782.37 521.57 782.51 524.46 783.53 C 526.59 790.51 524.85 797.93 524.92 805.08 C 525.12 808.24 521.74 809.57 519.27 810.34 C 513.95 811.71 507.95 811.80 503.01 809.13 C 500.23 807.44 498.12 804.42 498.12 801.09 C 498.03 794.98 498.30 788.88 498.17 782.77 Z" />
<path fill="#ffffff" opacity="1.00" d=" M 387.26 785.68 C 390.20 785.03 393.72 783.47 396.43 785.57 C 397.58 787.52 397.64 789.85 397.93 792.05 C 400.51 791.57 403.12 791.29 405.73 791.13 C 406.46 793.28 407.61 795.94 406.04 798.02 C 403.85 799.10 401.28 799.09 398.93 799.66 C 399.74 802.81 399.43 806.26 400.80 809.25 C 402.80 811.07 405.59 809.41 407.87 809.09 C 409.25 811.46 409.75 815.33 406.81 816.74 C 401.81 819.19 393.47 819.26 391.41 812.95 C 389.43 803.97 388.76 794.75 387.26 785.68 Z" />
<path fill="#ffffff" opacity="1.00" d=" M 441.22 785.53 C 444.20 785.44 448.25 783.74 450.49 786.45 C 451.52 789.18 451.44 792.13 451.62 795.00 C 451.83 800.77 452.58 806.51 452.81 812.29 C 449.92 812.60 446.57 813.75 443.93 812.05 C 442.47 810.08 442.66 807.38 442.45 805.05 C 442.30 798.53 441.35 792.05 441.22 785.53 Z" />
<path fill="#ffffff" opacity="1.00" d=" M 419.35 788.46 C 423.09 786.65 427.46 785.39 431.57 786.60 C 433.88 787.63 434.08 790.50 433.58 792.68 C 430.68 793.91 427.39 794.08 424.54 795.53 C 425.39 801.96 425.81 808.44 426.67 814.88 C 423.46 815.43 418.22 817.43 416.72 813.22 C 415.74 807.16 415.45 801.00 414.68 794.91 C 414.12 791.82 416.85 789.59 419.35 788.46 Z" />
<path fill="#ffffff" opacity="1.00" d=" M 563.20 787.16 C 565.89 785.70 569.12 786.02 572.08 786.07 C 576.55 786.36 581.79 787.52 584.32 791.61 C 586.66 795.41 585.11 799.93 584.88 804.05 C 584.44 806.90 584.96 810.05 583.47 812.65 C 580.08 815.58 575.24 815.89 570.97 815.50 C 567.44 815.07 563.71 814.34 560.92 811.99 C 556.58 808.42 557.49 800.07 562.97 798.11 C 567.31 796.51 572.04 797.45 576.56 797.11 C 574.42 791.11 567.02 794.08 562.30 793.70 C 560.94 791.74 560.82 788.41 563.20 787.16 M 567.66 806.07 C 568.69 809.23 572.60 808.11 575.11 808.18 C 575.21 806.64 575.31 805.10 575.43 803.58 C 572.88 804.03 567.91 802.20 567.66 806.07 Z" />
<path fill="#ffffff" opacity="1.00" d=" M 635.18 785.22 C 637.97 785.71 641.20 785.56 643.45 787.55 C 644.44 789.53 643.73 791.78 643.43 793.85 C 641.34 803.80 639.50 813.80 637.46 823.77 C 634.33 823.13 628.53 823.57 628.60 819.07 C 630.46 807.73 633.01 796.51 635.18 785.22 Z" />
<path fill="#ffffff" opacity="1.00" d=" M 360.96 790.86 C 363.93 790.08 367.69 788.05 370.29 790.72 C 371.14 792.60 371.42 794.68 371.88 796.70 C 374.33 796.29 376.78 795.84 379.21 795.33 C 380.15 797.25 381.38 799.38 380.63 801.61 C 378.88 803.86 375.71 803.52 373.19 804.09 C 373.86 807.32 374.07 810.70 375.30 813.80 C 377.22 815.36 379.93 813.87 382.03 813.28 C 383.87 815.17 384.64 818.43 382.45 820.40 C 379.57 822.73 375.55 823.02 372.00 822.66 C 368.28 822.17 365.91 818.67 365.38 815.19 C 363.89 807.08 362.33 798.98 360.96 790.86 Z" />
<path fill="#ffffff" opacity="1.00" d=" M 334.59 794.37 C 337.90 793.18 342.77 792.43 344.84 796.06 C 350.32 804.86 355.44 813.89 360.33 823.04 C 357.91 825.19 354.48 826.73 351.25 825.64 C 349.31 824.21 348.47 821.79 347.19 819.83 C 344.01 820.67 340.82 821.43 337.60 822.12 C 337.59 824.59 337.59 827.07 337.60 829.55 C 334.72 830.69 331.28 832.53 328.37 830.51 C 326.98 829.01 327.33 826.82 327.31 824.98 C 327.60 816.25 328.62 807.58 329.40 798.89 C 329.25 796.06 332.52 795.25 334.59 794.37 M 338.16 802.59 C 337.72 806.46 337.50 810.35 337.36 814.24 C 339.49 813.70 341.63 813.19 343.78 812.73 C 342.14 809.23 340.21 805.87 338.16 802.59 Z" />
<path fill="#ffffff" opacity="1.00" d=" M 656.46 801.53 C 662.63 799.88 670.16 801.49 673.91 807.00 C 676.31 810.38 676.34 814.94 674.61 818.63 C 668.63 820.79 662.25 817.83 656.06 818.36 C 658.66 823.99 665.53 824.02 670.80 823.30 C 672.17 825.80 671.73 829.63 668.63 830.52 C 661.72 831.73 653.61 829.58 649.47 823.59 C 644.90 816.17 648.14 804.71 656.46 801.53 M 657.01 811.47 C 660.41 812.07 663.87 812.31 667.33 812.35 C 666.46 809.86 664.53 808.16 661.94 807.67 C 659.91 808.39 658.26 809.73 657.01 811.47 Z" />
<path fill="#ffffff" opacity="1.00" d=" M 297.19 820.27 C 301.06 815.80 305.11 811.50 308.97 807.04 C 312.36 806.61 315.06 808.76 315.77 812.05 C 313.51 817.06 308.58 820.03 305.15 824.17 C 310.30 824.99 315.42 826.00 320.59 826.69 C 321.16 828.83 322.53 831.65 320.42 833.43 C 318.19 835.68 314.77 834.62 312.04 834.15 C 307.72 833.00 303.23 832.50 298.98 831.14 C 295.91 828.72 294.06 823.35 297.19 820.27 Z" />
<path fill="#ffffff" opacity="1.00" d=" M 684.32 812.11 C 685.30 810.04 686.10 806.77 689.04 806.98 C 691.47 806.69 693.20 808.61 694.72 810.19 C 698.08 813.92 701.50 817.60 704.83 821.35 C 705.02 824.79 704.55 829.23 700.96 830.81 C 696.11 832.22 691.07 832.95 686.17 834.19 C 684.47 834.39 682.37 835.48 680.99 834.02 C 678.26 832.03 678.56 827.00 681.89 825.82 C 686.22 824.48 690.81 824.34 695.24 823.38 C 691.90 819.34 687.91 815.91 684.32 812.11 Z" />
</g>
<g id="#ffd200ff">
<path fill="#ffd200" opacity="1.00" d=" M 280.15 761.02 C 352.30 744.76 426.35 737.76 500.26 737.53 C 574.22 737.76 648.32 744.80 720.51 761.12 C 744.08 766.44 767.33 773.06 790.34 780.41 C 773.51 801.75 757.29 823.78 737.33 842.36 C 719.65 858.65 701.22 874.09 682.73 889.44 C 674.03 882.12 663.57 877.30 653.11 873.08 C 637.81 867.08 621.80 863.11 605.71 859.94 C 570.96 853.27 535.53 850.72 500.18 850.65 C 464.66 850.69 429.07 853.32 394.13 859.92 C 376.37 863.51 358.66 867.88 341.91 874.93 C 332.92 878.73 324.13 883.21 316.48 889.33 C 316.10 889.10 315.35 888.63 314.97 888.40 C 312.08 886.04 309.24 883.61 306.40 881.19 C 306.00 879.71 305.05 878.88 303.54 878.72 C 303.38 878.59 303.05 878.32 302.88 878.19 C 302.42 877.78 301.49 876.95 301.03 876.53 C 300.89 876.46 300.61 876.30 300.47 876.23 C 300.06 874.29 298.47 872.90 296.51 872.77 C 296.41 872.68 296.22 872.51 296.12 872.42 C 293.57 869.66 290.70 867.23 287.64 865.07 L 287.31 864.78 C 284.95 862.45 282.43 860.28 279.86 858.20 C 265.71 845.69 251.78 832.86 239.48 818.51 C 229.00 806.20 219.05 793.45 209.27 780.58 C 232.60 773.02 256.23 766.41 280.15 761.02 M 443.46 772.65 C 440.22 773.69 439.03 778.18 441.23 780.72 C 443.74 784.44 450.79 782.63 450.79 778.00 C 451.48 774.06 446.94 771.14 443.46 772.65 M 460.66 774.90 C 461.45 785.04 461.17 795.25 461.72 805.41 C 462.09 809.56 466.57 811.19 470.03 812.08 C 475.98 813.20 483.16 812.29 487.30 807.46 C 492.29 800.60 491.10 789.10 483.39 784.70 C 479.60 782.43 474.95 782.86 470.84 783.91 C 470.42 780.87 471.72 776.57 468.59 774.68 C 465.99 773.94 463.26 774.53 460.66 774.90 M 535.63 778.26 C 535.61 787.17 534.46 796.05 534.46 804.95 C 534.84 811.99 543.56 813.89 549.14 812.16 C 552.23 811.18 552.20 807.52 551.23 805.01 C 548.89 804.98 545.07 805.98 544.08 803.09 C 544.07 800.01 544.51 796.96 544.72 793.90 C 547.06 793.94 549.45 794.22 551.78 793.77 C 553.63 792.23 553.11 789.32 552.55 787.29 C 550.39 785.98 547.47 786.71 545.00 786.32 C 544.84 784.02 545.43 781.51 544.47 779.37 C 541.98 777.38 538.55 778.10 535.63 778.26 M 597.39 780.05 C 596.04 790.03 594.21 799.95 593.02 809.95 C 592.32 814.16 596.54 816.67 599.82 818.10 C 606.05 820.52 614.45 820.68 619.08 815.11 C 623.57 809.24 624.17 799.74 618.62 794.34 C 615.29 790.91 610.17 790.02 605.58 790.58 C 606.03 788.08 606.77 785.59 606.57 783.04 C 605.12 779.35 600.52 780.23 597.39 780.05 M 498.17 782.77 C 498.30 788.88 498.03 794.98 498.12 801.09 C 498.12 804.42 500.23 807.44 503.01 809.13 C 507.95 811.80 513.95 811.71 519.27 810.34 C 521.74 809.57 525.12 808.24 524.92 805.08 C 524.85 797.93 526.59 790.51 524.46 783.53 C 521.57 782.51 518.52 782.37 515.57 783.22 C 515.63 789.90 515.26 796.58 515.40 803.27 C 512.90 803.42 508.69 804.26 507.94 800.93 C 507.58 796.63 507.89 792.31 507.89 788.01 C 507.99 786.09 507.93 783.83 505.94 782.88 C 503.42 782.03 500.74 782.47 498.17 782.77 M 387.26 785.68 C 388.76 794.75 389.43 803.97 391.41 812.95 C 393.47 819.26 401.81 819.19 406.81 816.74 C 409.75 815.33 409.25 811.46 407.87 809.09 C 405.59 809.41 402.80 811.07 400.80 809.25 C 399.43 806.26 399.74 802.81 398.93 799.66 C 401.28 799.09 403.85 799.10 406.04 798.02 C 407.61 795.94 406.46 793.28 405.73 791.13 C 403.12 791.29 400.51 791.57 397.93 792.05 C 397.64 789.85 397.58 787.52 396.43 785.57 C 393.72 783.47 390.20 785.03 387.26 785.68 M 441.22 785.53 C 441.35 792.05 442.30 798.53 442.45 805.05 C 442.66 807.38 442.47 810.08 443.93 812.05 C 446.57 813.75 449.92 812.60 452.81 812.29 C 452.58 806.51 451.83 800.77 451.62 795.00 C 451.44 792.13 451.52 789.18 450.49 786.45 C 448.25 783.74 444.20 785.44 441.22 785.53 M 419.35 788.46 C 416.85 789.59 414.12 791.82 414.68 794.91 C 415.45 801.00 415.74 807.16 416.72 813.22 C 418.22 817.43 423.46 815.43 426.67 814.88 C 425.81 808.44 425.39 801.96 424.54 795.53 C 427.39 794.08 430.68 793.91 433.58 792.68 C 434.08 790.50 433.88 787.63 431.57 786.60 C 427.46 785.39 423.09 786.65 419.35 788.46 M 563.20 787.16 C 560.82 788.41 560.94 791.74 562.30 793.70 C 567.02 794.08 574.42 791.11 576.56 797.11 C 572.04 797.45 567.31 796.51 562.97 798.11 C 557.49 800.07 556.58 808.42 560.92 811.99 C 563.71 814.34 567.44 815.07 570.97 815.50 C 575.24 815.89 580.08 815.58 583.47 812.65 C 584.96 810.05 584.44 806.90 584.88 804.05 C 585.11 799.93 586.66 795.41 584.32 791.61 C 581.79 787.52 576.55 786.36 572.08 786.07 C 569.12 786.02 565.89 785.70 563.20 787.16 M 635.18 785.22 C 633.01 796.51 630.46 807.73 628.60 819.07 C 628.53 823.57 634.33 823.13 637.46 823.77 C 639.50 813.80 641.34 803.80 643.43 793.85 C 643.73 791.78 644.44 789.53 643.45 787.55 C 641.20 785.56 637.97 785.71 635.18 785.22 M 360.96 790.86 C 362.33 798.98 363.89 807.08 365.38 815.19 C 365.91 818.67 368.28 822.17 372.00 822.66 C 375.55 823.02 379.57 822.73 382.45 820.40 C 384.64 818.43 383.87 815.17 382.03 813.28 C 379.93 813.87 377.22 815.36 375.30 813.80 C 374.07 810.70 373.86 807.32 373.19 804.09 C 375.71 803.52 378.88 803.86 380.63 801.61 C 381.38 799.38 380.15 797.25 379.21 795.33 C 376.78 795.84 374.33 796.29 371.88 796.70 C 371.42 794.68 371.14 792.60 370.29 790.72 C 367.69 788.05 363.93 790.08 360.96 790.86 M 334.59 794.37 C 332.52 795.25 329.25 796.06 329.40 798.89 C 328.62 807.58 327.60 816.25 327.31 824.98 C 327.33 826.82 326.98 829.01 328.37 830.51 C 331.28 832.53 334.72 830.69 337.60 829.55 C 337.59 827.07 337.59 824.59 337.60 822.12 C 340.82 821.43 344.01 820.67 347.19 819.83 C 348.47 821.79 349.31 824.21 351.25 825.64 C 354.48 826.73 357.91 825.19 360.33 823.04 C 355.44 813.89 350.32 804.86 344.84 796.06 C 342.77 792.43 337.90 793.18 334.59 794.37 M 656.46 801.53 C 648.14 804.71 644.90 816.17 649.47 823.59 C 653.61 829.58 661.72 831.73 668.63 830.52 C 671.73 829.63 672.17 825.80 670.80 823.30 C 665.53 824.02 658.66 823.99 656.06 818.36 C 662.25 817.83 668.63 820.79 674.61 818.63 C 676.34 814.94 676.31 810.38 673.91 807.00 C 670.16 801.49 662.63 799.88 656.46 801.53 M 297.19 820.27 C 294.06 823.35 295.91 828.72 298.98 831.14 C 303.23 832.50 307.72 833.00 312.04 834.15 C 314.77 834.62 318.19 835.68 320.42 833.43 C 322.53 831.65 321.16 828.83 320.59 826.69 C 315.42 826.00 310.30 824.99 305.15 824.17 C 308.58 820.03 313.51 817.06 315.77 812.05 C 315.06 808.76 312.36 806.61 308.97 807.04 C 305.11 811.50 301.06 815.80 297.19 820.27 M 684.32 812.11 C 687.91 815.91 691.90 819.34 695.24 823.38 C 690.81 824.34 686.22 824.48 681.89 825.82 C 678.56 827.00 678.26 832.03 680.99 834.02 C 682.37 835.48 684.47 834.39 686.17 834.19 C 691.07 832.95 696.11 832.22 700.96 830.81 C 704.55 829.23 705.02 824.79 704.83 821.35 C 701.50 817.60 698.08 813.92 694.72 810.19 C 693.20 808.61 691.47 806.69 689.04 806.98 C 686.10 806.77 685.30 810.04 684.32 812.11 Z" />
<path fill="#ffd200" opacity="1.00" d=" M 470.88 791.70 C 473.56 790.53 477.20 790.09 479.04 792.91 C 480.85 796.32 480.98 801.48 477.70 804.11 C 475.65 804.91 473.45 804.55 471.38 804.12 C 471.55 799.97 471.08 795.84 470.88 791.70 Z" />
<path fill="#ffd200" opacity="1.00" d=" M 604.65 797.90 C 607.40 797.66 611.16 797.93 612.16 801.08 C 613.00 804.42 612.56 808.64 609.80 811.00 C 607.54 812.59 604.85 811.48 602.57 810.58 C 603.34 806.36 603.80 802.10 604.65 797.90 Z" />
<path fill="#ffd200" opacity="1.00" d=" M 338.16 802.59 C 340.21 805.87 342.14 809.23 343.78 812.73 C 341.63 813.19 339.49 813.70 337.36 814.24 C 337.50 810.35 337.72 806.46 338.16 802.59 Z" />
<path fill="#ffd200" opacity="1.00" d=" M 567.66 806.07 C 567.91 802.20 572.88 804.03 575.43 803.58 C 575.31 805.10 575.21 806.64 575.11 808.18 C 572.60 808.11 568.69 809.23 567.66 806.07 Z" />
<path fill="#ffd200" opacity="1.00" d=" M 657.01 811.47 C 658.26 809.73 659.91 808.39 661.94 807.67 C 664.53 808.16 666.46 809.86 667.33 812.35 C 663.87 812.31 660.41 812.07 657.01 811.47 Z" />
</g>
</svg>
