<?xml version="1.0" standalone="no"?>
<!DOCTYPE svg PUBLIC "-//W3C//DTD SVG 20010904//EN"
 "http://www.w3.org/TR/2001/REC-SVG-20010904/DTD/svg10.dtd">
<svg version="1.0" xmlns="http://www.w3.org/2000/svg"
 width="1000.000000pt" height="1000.000000pt" viewBox="0 0 1000.000000 1000.000000"
 preserveAspectRatio="xMidYMid meet">
<metadata>
Created by potrace 1.11, written by Peter Selinger 2001-2013
</metadata>
<g transform="translate(0.000000,1000.000000) scale(0.100000,-0.100000)"
fill="#000000" stroke="none">
<path d="M4910 9960 c-47 -21 -314 -136 -595 -255 -280 -120 -815 -348 -1189
-507 -373 -159 -688 -293 -700 -298 -12 -4 -42 -17 -66 -28 -25 -12 -263 -113
-530 -227 -267 -113 -508 -216 -535 -229 l-50 -24 1 -2083 c1 -1146 4 -2102 8
-2124 3 -22 8 -62 11 -90 4 -27 8 -61 10 -75 12 -74 16 -96 20 -110 2 -8 7
-31 10 -50 3 -19 8 -43 11 -52 3 -9 7 -26 9 -37 12 -65 64 -236 112 -371 98
-276 210 -510 374 -785 123 -204 114 -193 141 -169 13 11 37 29 53 40 31 21
334 143 460 185 39 13 72 24 74 26 2 1 -13 26 -34 55 -31 45 -150 225 -192
293 -89 144 -213 408 -273 581 -43 125 -95 312 -106 378 -3 21 -8 48 -10 60
-6 29 -22 141 -28 196 -3 25 -8 104 -12 175 -6 125 -9 2648 -4 3238 l3 288 26
13 c14 8 159 66 321 131 162 64 327 129 365 145 39 15 117 47 175 70 58 23
119 48 135 55 17 7 95 39 175 70 80 32 159 63 175 70 17 7 197 79 400 160 204
81 384 153 400 160 17 7 62 25 100 40 39 15 79 31 90 36 11 4 106 43 210 85
105 42 237 95 295 119 58 23 137 52 175 65 39 13 72 27 75 31 3 4 19 2 35 -5
17 -8 118 -49 225 -91 107 -43 213 -85 235 -95 22 -9 117 -48 210 -85 94 -37
184 -73 200 -80 17 -7 517 -208 1113 -445 838 -334 1085 -436 1094 -453 9 -17
11 -468 11 -1807 0 -1574 -3 -1866 -17 -1946 -2 -11 -6 -40 -10 -65 -31 -216
-113 -499 -197 -686 -10 -24 -19 -45 -19 -48 0 -12 -125 -255 -177 -345 -74
-126 -186 -289 -297 -430 -50 -63 -93 -117 -96 -120 -3 -3 -27 -31 -54 -63
-38 -45 -54 -58 -70 -54 -12 3 -55 12 -96 20 -41 9 -86 19 -100 22 -14 3 -77
14 -140 26 -63 11 -126 22 -140 25 -14 2 -70 11 -125 19 -55 9 -111 17 -125
20 -14 2 -50 7 -80 10 -30 3 -66 8 -80 10 -47 7 -135 17 -175 21 -41 3 -129
11 -200 19 -22 2 -87 7 -145 11 -58 3 -121 8 -140 9 -51 5 -397 17 -525 19
l-110 1 -1 35 c-1 19 -7 49 -14 65 -9 23 -9 41 -1 76 7 25 12 83 13 130 l1 84
-124 -1 c-117 0 -324 -9 -434 -19 -27 -2 -84 -7 -125 -10 -41 -3 -88 -8 -105
-10 -83 -11 -134 -17 -175 -21 -25 -2 -58 -6 -75 -8 -114 -14 -142 -18 -155
-21 -8 -2 -35 -7 -60 -10 -41 -5 -128 -19 -190 -31 -14 -2 -40 -7 -59 -10 -18
-3 -41 -7 -50 -9 -361 -73 -642 -145 -894 -229 -439 -147 -570 -214 -626 -322
-29 -56 -32 -87 -15 -151 12 -48 96 -285 123 -348 5 -11 34 -90 65 -175 60
-165 74 -194 83 -172 16 41 76 113 127 154 166 133 463 244 896 334 36 7 239
43 280 50 19 3 60 9 90 14 58 9 107 15 203 25 32 4 66 8 75 10 9 1 60 6 112
10 52 4 102 9 111 10 8 2 69 6 135 10 65 4 137 9 159 11 22 2 171 7 330 10
160 3 292 8 294 10 2 2 4 16 5 31 1 25 5 28 30 26 16 -1 33 -8 38 -15 4 -7 7
-48 7 -92 -1 -43 3 -82 8 -87 13 -13 63 -22 64 -12 0 5 2 51 3 103 l1 95 39 3
c21 2 44 -2 50 -8 7 -7 10 -50 9 -117 -2 -88 -5 -110 -21 -125 -37 -38 -172
-39 -213 -2 -18 16 -18 8 -18 -205 l1 -221 127 -1 c192 -2 419 -15 571 -35 89
-11 116 -15 215 -30 118 -18 137 -23 131 -33 -8 -12 -246 -170 -371 -245 -60
-37 -117 -71 -125 -76 -55 -33 -267 -149 -385 -210 -77 -40 -144 -76 -149 -81
-5 -5 -14 -2 -20 6 -6 7 -40 25 -76 40 -36 14 -128 60 -205 102 -462 252 -937
569 -1275 852 -63 53 -124 104 -136 113 -19 15 -26 16 -81 3 -33 -8 -71 -16
-84 -19 -58 -10 -233 -58 -329 -90 -106 -34 -271 -94 -277 -99 -2 -3 261 -268
300 -302 7 -6 50 -44 97 -85 389 -344 869 -673 1430 -983 173 -95 591 -302
630 -312 20 -5 81 22 275 119 138 69 279 142 315 162 613 339 1058 645 1495
1025 16 15 68 60 115 100 209 181 324 297 472 479 60 74 117 144 126 155 147
181 369 507 480 706 128 231 284 578 328 729 7 25 29 99 49 165 19 66 38 136
41 155 3 19 10 53 16 75 6 22 12 54 14 70 2 17 6 39 8 50 3 11 8 43 11 70 4
28 9 61 12 75 3 14 7 977 8 2141 l2 2116 -746 318 c-410 175 -885 378 -1056
451 -170 72 -680 290 -1132 483 -452 193 -824 351 -825 350 -2 -1 -41 -18 -88
-39z m-209 -7129 c19 -4 27 -66 29 -207 1 -87 3 -197 4 -244 2 -47 1 -91 -2
-97 -6 -18 -103 -17 -127 1 -16 11 -19 31 -22 167 -1 85 -5 200 -7 256 -3 105
-1 116 24 125 12 4 77 4 101 -1z m-607 -65 c3 -12 8 -69 11 -126 9 -142 14
-232 14 -252 1 -16 11 -17 100 -12 110 7 111 6 113 -67 1 -39 -22 -59 -71 -60
-38 -1 -106 -6 -180 -13 -24 -2 -54 1 -67 6 -41 19 -43 33 -60 403 -3 66 -7
125 -9 132 -6 17 73 31 112 20 19 -6 34 -18 37 -31z m1344 -558 c6 -7 12 -26
14 -43 2 -18 9 -30 18 -31 64 -4 61 -2 58 -36 -3 -30 -6 -33 -40 -36 -21 -2
-38 -9 -39 -15 0 -7 -2 -21 -5 -32 -8 -41 5 -65 36 -65 20 0 31 -6 35 -21 15
-48 -56 -74 -120 -43 -53 25 -55 42 -41 248 3 34 5 67 5 74 1 7 15 12 35 12
18 0 38 -6 44 -12z m610 -24 c18 -13 21 -21 16 -52 -6 -37 -5 -37 31 -40 78
-5 128 -57 128 -136 1 -91 -48 -148 -132 -151 -58 -3 -106 13 -137 44 -23 23
-25 31 -19 76 4 27 8 64 11 80 7 56 25 170 29 183 6 17 46 15 73 -4z m382 -60
c13 -13 11 -31 -13 -152 -15 -75 -30 -150 -33 -166 -8 -48 -14 -50 -76 -30
-25 8 -23 41 17 236 l28 137 31 -6 c17 -3 38 -12 46 -19z m-621 -10 c17 -10
34 -29 39 -43 11 -32 5 -146 -10 -183 -13 -34 -62 -49 -133 -42 -64 7 -102 30
-115 70 -23 68 26 113 120 111 30 0 54 4 54 9 -2 19 -50 34 -95 29 -41 -5 -47
-3 -52 15 -4 14 2 29 15 42 18 18 29 20 83 16 35 -3 77 -14 94 -24z m900 -153
c16 -12 33 -33 39 -49 10 -28 9 -89 -2 -99 -8 -8 -59 -8 -128 0 -46 5 -56 4
-52 -7 8 -21 49 -38 95 -40 53 -1 67 -18 44 -53 -16 -24 -21 -25 -72 -20 -65
7 -128 44 -144 85 -28 70 -4 156 54 193 41 26 123 21 166 -10z m274 -103 c61
-66 68 -76 63 -107 -2 -18 -10 -39 -18 -47 -16 -16 -193 -55 -213 -48 -20 8
-28 40 -16 63 11 19 28 25 106 37 22 3 42 8 44 10 2 2 -19 27 -47 55 -54 54
-64 81 -34 98 32 19 46 11 115 -61z"/>
<path d="M6047 2013 c-3 -5 -8 -33 -12 -65 -6 -51 -5 -57 14 -63 33 -10 58 3
70 35 18 53 -3 100 -45 100 -12 0 -25 -3 -27 -7z"/>
<path d="M5684 1955 c-14 -10 -14 -12 1 -25 9 -8 26 -14 36 -15 22 -2 42 25
31 41 -10 13 -50 13 -68 -1z"/>
<path d="M6590 1905 c-17 -20 -11 -24 38 -29 45 -4 54 7 25 30 -24 18 -48 17
-63 -1z"/>
<path d="M4515 7785 c-44 -7 -91 -15 -105 -18 -14 -3 -53 -10 -87 -16 -35 -6
-75 -13 -90 -16 -16 -3 -118 -21 -228 -40 -110 -19 -210 -37 -221 -39 -12 -2
-37 -7 -55 -10 -19 -3 -86 -15 -149 -26 -201 -36 -224 -40 -260 -46 -19 -2
-46 -7 -60 -10 -14 -2 -38 -7 -55 -10 -16 -2 -66 -11 -110 -19 -44 -8 -93 -17
-110 -19 -54 -9 -320 -57 -330 -60 -5 -2 -28 -6 -49 -11 -95 -19 -193 -70
-246 -128 -22 -23 -58 -93 -65 -126 -3 -12 -8 -31 -11 -43 -4 -13 -7 -648 -8
-1413 -2 -1495 -3 -1467 49 -1546 40 -61 81 -74 225 -73 243 3 421 78 485 203
47 93 48 108 49 633 1 273 4 499 7 502 4 5 23 9 102 21 17 3 82 14 142 25 61
10 126 22 145 25 19 3 58 10 85 15 53 10 269 48 320 57 113 18 229 44 280 64
78 29 144 96 173 176 30 82 34 103 37 238 5 196 -37 315 -123 351 -50 20 -142
24 -227 7 -87 -17 -78 -15 -325 -57 -113 -20 -216 -38 -230 -40 -14 -3 -54
-10 -90 -16 -36 -6 -76 -13 -90 -16 -14 -3 -47 -9 -75 -14 -85 -16 -108 -21
-116 -25 -4 -3 -9 5 -11 18 -6 30 -4 435 2 440 4 4 269 52 455 83 50 8 258 45
285 50 14 3 36 7 50 9 49 7 95 16 110 20 8 2 31 6 50 9 47 7 121 20 265 46 66
12 129 23 140 25 187 33 259 59 338 125 30 25 68 107 81 179 13 69 14 277 1
346 -14 82 -58 145 -113 166 -40 15 -150 17 -237 4z"/>
<path d="M5322 7790 c-43 -10 -96 -47 -118 -84 -39 -67 -40 -88 -38 -1536 1
-1302 2 -1409 18 -1463 32 -107 103 -175 231 -222 97 -35 163 -47 287 -51 153
-5 206 24 248 133 22 57 23 67 25 543 1 267 3 494 4 504 2 32 7 25 416 -514
69 -91 131 -172 138 -180 6 -8 37 -49 67 -90 30 -41 57 -77 60 -80 3 -3 34
-43 69 -90 237 -315 337 -440 386 -483 113 -100 231 -97 400 8 90 56 173 134
198 187 41 87 -1 220 -117 369 -12 15 -30 39 -41 55 -48 67 -445 555 -475 584
-3 3 -28 32 -55 65 -28 32 -57 66 -65 75 -8 9 -26 30 -40 46 -72 84 -219 253
-246 284 -83 91 -83 79 1 146 28 21 59 47 70 56 11 10 74 60 140 112 66 53
134 106 150 120 58 46 280 231 315 262 19 17 64 57 100 89 117 104 227 223
250 272 31 65 37 141 15 195 -50 126 -268 353 -396 412 -75 35 -130 34 -207
-5 -60 -29 -127 -91 -522 -479 -42 -41 -157 -151 -255 -245 -98 -93 -205 -196
-238 -228 -57 -55 -116 -102 -118 -95 -1 2 -2 224 -4 493 -3 584 -7 611 -95
696 -84 81 -258 137 -450 143 -41 2 -90 0 -108 -4z"/>
<path d="M5038 3891 c-2 -16 -4 -124 -4 -240 1 -234 2 -237 69 -248 34 -5 36
-4 45 28 4 19 8 59 8 91 -1 68 -1 68 91 -49 95 -119 116 -129 170 -78 l23 21
-67 84 c-36 47 -69 87 -72 90 -3 3 -14 15 -24 27 -19 21 -18 22 25 60 75 67
115 107 121 127 5 13 -4 29 -33 59 l-41 40 -67 -64 c-36 -35 -77 -75 -90 -88
-29 -29 -36 -22 -38 37 -4 125 3 114 -75 127 -35 6 -37 5 -41 -24z"/>
<path d="M4802 3739 c-31 -15 -60 -25 -65 -22 -29 18 -83 21 -113 7 -17 -8
-62 -16 -99 -17 -82 -3 -77 9 -76 -177 1 -184 1 -184 31 -188 32 -3 88 31 87
55 -1 180 9 218 53 206 34 -9 33 -6 39 -203 1 -24 4 -25 50 -22 34 3 52 9 57
20 4 10 8 59 10 111 2 97 8 113 51 125 18 6 22 2 29 -26 4 -18 8 -67 10 -108
1 -41 3 -78 3 -82 1 -5 26 -8 56 -8 54 0 55 0 56 30 1 28 3 37 9 58 2 8 0 78
-5 141 -4 45 -45 120 -68 122 -6 1 -23 3 -36 4 -13 1 -48 -10 -79 -26z"/>
<path d="M3597 3734 c-1 -1 -24 -4 -52 -8 -81 -9 -217 -34 -223 -41 -3 -3 -6
-114 -6 -245 0 -172 3 -243 11 -251 10 -10 21 -10 52 0 22 6 43 16 46 21 3 5
8 46 10 91 2 45 6 83 8 86 5 4 24 8 83 18 66 10 98 16 101 18 1 2 4 28 6 60
l5 57 -31 -5 c-18 -2 -62 -6 -98 -9 l-67 -6 -4 31 c-6 36 -4 37 59 44 163 16
199 27 210 64 5 14 7 38 5 53 -3 25 -6 26 -58 25 -31 -1 -56 -3 -57 -3z"/>
<path d="M5570 3697 c-78 -20 -120 -78 -120 -164 1 -85 53 -166 130 -200 36
-17 202 -24 216 -10 8 7 -15 97 -25 97 -3 1 -33 2 -66 4 -60 4 -115 22 -115
38 0 4 47 6 104 3 58 -3 107 -1 110 3 11 19 14 83 5 116 -10 37 -64 91 -108
107 -37 15 -90 17 -131 6z m117 -119 c6 -7 13 -21 16 -30 5 -14 2 -17 -16 -14
-12 3 -41 5 -64 5 -33 1 -41 4 -37 15 11 28 85 45 101 24z"/>
<path d="M4300 3684 c-58 -14 -109 -22 -150 -23 -30 -1 -33 -15 -33 -176 0
-192 -1 -185 31 -185 76 1 84 13 87 136 3 95 14 120 55 128 16 3 43 9 59 12
23 4 31 12 39 44 7 30 6 44 -5 59 -8 12 -17 21 -21 20 -4 -1 -32 -7 -62 -15z"/>
<path d="M3129 3608 c-1 -24 -3 -128 -5 -233 -2 -104 -5 -230 -7 -278 -3 -102
5 -123 43 -109 l25 10 -1 308 c-1 170 -2 317 -3 327 -1 11 -9 17 -26 17 -23 0
-25 -4 -26 -42z"/>
<path d="M5946 3640 c-31 -10 -72 -44 -88 -74 -22 -40 -21 -121 1 -171 40 -91
119 -138 233 -138 73 0 98 12 98 47 0 44 -22 59 -95 63 -65 5 -115 24 -115 44
0 5 12 7 28 5 27 -5 133 -9 163 -7 23 1 41 51 34 92 -19 107 -142 174 -259
139z m119 -114 c0 0 8 -11 18 -23 l18 -21 -60 0 c-34 1 -61 5 -61 9 0 22 42
50 63 43 12 -3 22 -7 22 -8z"/>
<path d="M2955 3619 c-22 -11 -64 -37 -94 -57 -51 -35 -57 -37 -139 -37 l-86
0 -1 -163 c0 -90 3 -169 7 -175 4 -7 40 -11 90 -11 78 0 88 3 167 44 59 31
100 45 137 48 l54 4 1 37 c2 38 1 229 0 294 l-1 37 -48 0 c-29 0 -63 -8 -87
-21z"/>
<path d="M3815 3621 c-47 -21 -99 -70 -122 -114 -8 -17 -16 -56 -17 -87 -1
-46 4 -64 27 -98 75 -115 262 -86 334 51 21 41 25 133 7 174 -31 73 -148 110
-229 74z m104 -130 c25 -25 15 -77 -21 -104 -35 -26 -83 -16 -96 21 -24 70 66
134 117 83z"/>
<path d="M6268 3587 c-10 -30 -2 -487 8 -497 11 -11 85 -32 92 -26 3 4 10 104
11 164 1 31 2 32 24 18 34 -22 104 -28 135 -12 132 69 107 269 -41 331 -21 9
-64 18 -95 21 -31 2 -73 7 -94 9 -23 3 -38 0 -40 -8z m217 -147 c9 -8 15 -30
15 -57 l0 -44 -37 6 c-52 8 -73 30 -73 78 l0 40 40 -6 c23 -3 47 -11 55 -17z"/>
<path d="M6775 3526 c-56 -21 -77 -38 -96 -79 -46 -102 1 -226 104 -279 42
-21 144 -32 200 -21 24 5 27 9 23 37 -6 51 -16 66 -45 67 -73 2 -118 11 -145
30 l-31 20 85 -7 c116 -9 122 -8 143 18 25 30 16 99 -18 144 -48 62 -151 95
-220 70z m115 -126 c31 -23 24 -31 -30 -32 -46 0 -66 12 -57 36 9 22 56 20 87
-4z"/>
<path d="M7088 3458 c-3 -30 -3 -201 1 -301 l1 -38 57 3 57 3 1 96 c1 122 6
129 85 123 33 -3 60 -1 61 3 0 4 2 26 5 48 6 50 -12 64 -94 71 -58 5 -96 10
-143 20 -24 5 -27 2 -31 -28z"/>
<path d="M1825 2013 c-221 -41 -475 -161 -705 -332 -41 -31 -79 -59 -85 -63
-21 -16 12 -25 185 -54 121 -19 217 -37 230 -43 15 -5 15 -13 -1 -96 -10 -49
-21 -142 -25 -205 -7 -129 -11 -330 -5 -330 2 0 42 29 90 63 109 81 227 155
322 202 76 39 277 109 339 119 19 3 69 12 110 21 41 9 91 18 110 21 85 14 179
70 219 131 11 18 21 35 21 37 0 6 -83 -23 -193 -68 -97 -39 -166 -52 -222 -42
-40 8 -44 14 -90 146 -15 41 -35 98 -46 125 -10 28 -46 122 -78 210 l-59 160
-48 1 c-27 0 -58 -1 -69 -3z"/>
</g>
</svg>
